<svg width="20" height="18" viewBox="0 0 20 18" fill="none" xmlns="http://www.w3.org/2000/svg">
<path d="M1.79556 18C1.2837 18 0.856667 17.8267 0.514445 17.4802C0.172222 17.1337 0.000740741 16.701 0 16.182V5.193C0 4.67475 0.171482 4.24238 0.514445 3.89588C0.857408 3.54938 1.28407 3.37575 1.79444 3.375H6.66667V1.81688C6.66667 1.29938 6.83815 0.867002 7.18111 0.519752C7.52407 0.172502 7.95111 -0.000747575 8.46222 2.42457e-06H11.5389C12.05 2.42457e-06 12.477 0.173252 12.82 0.519752C13.163 0.866252 13.3341 1.29863 13.3333 1.81688V3.375H18.2056C18.7167 3.375 19.1433 3.54863 19.4856 3.89588C19.8278 4.24313 19.9993 4.6755 20 5.193V16.1831C20 16.7006 19.8285 17.133 19.4856 17.4802C19.1426 17.8275 18.7159 18.0007 18.2056 18H1.79556ZM7.77778 3.375H12.2222V1.81688C12.2222 1.64438 12.1511 1.48575 12.0089 1.341C11.8667 1.19625 11.71 1.12425 11.5389 1.125H8.46111C8.29074 1.125 8.13407 1.197 7.99111 1.341C7.84815 1.485 7.77704 1.64363 7.77778 1.81688V3.375Z" fill="#021327"/>
</svg>
