<svg width="16" height="17" viewBox="0 0 16 17" fill="none" xmlns="http://www.w3.org/2000/svg">
<path d="M9.79345 4.64667C8.24595 4.64667 6.7207 5.2629 5.55627 6.47443V0.5H3.25195V10.5591C3.25195 13.8243 6.10577 16.4714 9.6262 16.4714C13.1466 16.4714 16.0005 13.8243 16.0005 10.5591C16.0005 7.2938 13.3138 4.64667 9.79345 4.64667ZM9.6262 14.1942C7.4617 14.1942 5.70702 12.5667 5.70702 10.5591C5.70702 8.55148 7.4617 6.92388 9.6262 6.92388C11.7906 6.92388 13.5453 8.55142 13.5453 10.5591C13.5453 12.5667 11.7906 14.1942 9.6262 14.1942Z" fill="white"/>
<path d="M1.57625 13.5474C0.705625 13.5474 0 14.202 0 15.0094C0 15.8168 0.705687 16.4714 1.57625 16.4714C2.44681 16.4714 3.1525 15.8168 3.1525 15.0094C3.1525 14.202 2.44681 13.5474 1.57625 13.5474Z" fill="#0000FF"/>
</svg>
