<svg width="14" height="14" viewBox="0 0 14 14" fill="none" xmlns="http://www.w3.org/2000/svg">
<rect width="14" height="14" rx="2" fill="white"/>
<path d="M3.56389 7.01496L5.41953 8.8706C5.50732 8.95839 5.55122 9.07013 5.55122 9.20581C5.55122 9.34149 5.50732 9.45323 5.41953 9.54102C5.33173 9.62881 5.21999 9.67271 5.08431 9.67271C4.94863 9.67271 4.8369 9.62881 4.7491 9.54102L2.54628 7.3382C2.49839 7.29031 2.46439 7.23843 2.44428 7.18256C2.42417 7.12669 2.41443 7.06684 2.41507 7.00299C2.41571 6.93914 2.42576 6.87928 2.44524 6.82341C2.46471 6.76754 2.49855 6.71566 2.54676 6.66777L4.74958 4.46495C4.84536 4.36918 4.95917 4.32129 5.09102 4.32129C5.22287 4.32129 5.33652 4.36918 5.43198 4.46495C5.52743 4.56073 5.57532 4.67454 5.57564 4.80639C5.57596 4.93824 5.52807 5.05189 5.43198 5.14735L3.56389 7.01496ZM10.4357 6.99101L8.5801 5.13538C8.4923 5.04758 8.4484 4.93584 8.4484 4.80016C8.4484 4.66448 8.4923 4.55274 8.5801 4.46495C8.66789 4.37716 8.77963 4.33326 8.91531 4.33326C9.05099 4.33326 9.16273 4.37716 9.25052 4.46495L11.4533 6.66777C11.5012 6.71566 11.5352 6.76754 11.5553 6.82341C11.5755 6.87928 11.5854 6.93914 11.585 7.00299C11.5847 7.06684 11.5748 7.12669 11.5553 7.18256C11.5359 7.23843 11.5019 7.29031 11.4533 7.3382L9.25052 9.54102C9.15474 9.63679 9.04301 9.68277 8.91531 9.67893C8.78761 9.6751 8.67587 9.62514 8.5801 9.52905C8.48432 9.43295 8.43643 9.3193 8.43643 9.18809C8.43643 9.05688 8.48432 8.94307 8.5801 8.84665L10.4357 6.99101Z" fill="#262626"/>
</svg>
