<svg width="20" height="20" viewBox="0 0 20 20" fill="none" xmlns="http://www.w3.org/2000/svg">
<path d="M16.2838 4.21191H6.67822C5.31612 4.21191 4.21191 5.31612 4.21191 6.67822V16.2838C4.21191 17.6459 5.31612 18.7501 6.67822 18.7501H16.2838C17.6459 18.7501 18.7501 17.6459 18.7501 16.2838V6.67822C18.7501 5.31612 17.6459 4.21191 16.2838 4.21191Z" stroke="#111111" stroke-width="1.5" stroke-linejoin="round"/>
<path d="M15.2666 4.21148L15.2882 3.17303C15.2864 2.53097 15.0305 1.91572 14.5765 1.46171C14.1225 1.0077 13.5072 0.751827 12.8652 0.75H3.51918C2.78542 0.752169 2.08232 1.04462 1.56347 1.56347C1.04462 2.08232 0.752169 2.78542 0.75 3.51918V12.8652C0.751827 13.5072 1.0077 14.1225 1.46171 14.5765C1.91572 15.0305 2.53097 15.2864 3.17303 15.2882H4.21148" stroke="#111111" stroke-width="1.5" stroke-linecap="round" stroke-linejoin="round"/>
</svg>
