<svg width="20" height="20" viewBox="0 0 20 20" fill="none" xmlns="http://www.w3.org/2000/svg">
<path d="M16.5338 4.46191H6.92822C5.56612 4.46191 4.46191 5.56612 4.46191 6.92822V16.5338C4.46191 17.8959 5.56612 19.0001 6.92822 19.0001H16.5338C17.8959 19.0001 19.0001 17.8959 19.0001 16.5338V6.92822C19.0001 5.56612 17.8959 4.46191 16.5338 4.46191Z" stroke="#ECDFCC" stroke-width="1.5" stroke-linejoin="round"/>
<path d="M15.5166 4.46148L15.5382 3.42303C15.5364 2.78097 15.2805 2.16572 14.8265 1.71171C14.3725 1.2577 13.7572 1.00183 13.1152 1H3.76918C3.03542 1.00217 2.33232 1.29462 1.81347 1.81347C1.29462 2.33232 1.00217 3.03542 1 3.76918V13.1152C1.00183 13.7572 1.2577 14.3725 1.71171 14.8265C2.16572 15.2805 2.78097 15.5364 3.42303 15.5382H4.46148" stroke="#ECDFCC" stroke-width="1.5" stroke-linecap="round" stroke-linejoin="round"/>
</svg>
