<svg width="16" height="17" viewBox="0 0 16 17" fill="none" xmlns="http://www.w3.org/2000/svg">
<path d="M12.25 0.5H3.75C1.67893 0.5 0 2.17893 0 4.25V12.75C0 14.8211 1.67893 16.5 3.75 16.5H12.25C14.3211 16.5 16 14.8211 16 12.75V4.25C16 2.17893 14.3211 0.5 12.25 0.5Z" fill="#0277BD"/>
<path d="M3.35956 6.91569L3.53844 8.91206H8.006V6.91569H3.35956ZM8.00594 2.875H3L3.1815 4.87138H8.00594V2.875ZM8.00594 14.1776V12.1005L7.99719 12.1028L5.77381 11.5025L5.63169 9.91025H3.62762L3.90731 13.0449L7.99675 14.1801L8.00594 14.1776Z" fill="#EBEBEB"/>
<path d="M10.4573 8.91206L10.2256 11.5012L7.99902 12.1022V14.1791L12.0917 13.0449L12.1217 12.7076L12.5908 7.45181L12.6395 6.91569L13 2.875H7.99902V4.87138H10.8121L10.6305 6.91569H7.99902V8.91206H10.4573Z" fill="white"/>
</svg>
