<svg width="26" height="26" viewBox="0 0 26 26" fill="none" xmlns="http://www.w3.org/2000/svg">
<path d="M5.00067 20.5832C4.50161 20.5832 4.08525 20.4163 3.75158 20.0827C3.41792 19.749 3.25072 19.3323 3.25 18.8325V7.16717C3.25 6.66812 3.41719 6.25175 3.75158 5.91809C4.08597 5.58442 4.50197 5.41723 4.99958 5.4165H21.0004C21.4988 5.4165 21.9148 5.5837 22.2484 5.91809C22.5821 6.25248 22.7493 6.66884 22.75 7.16717V18.8336C22.75 19.3319 22.5828 19.7483 22.2484 20.0827C21.914 20.4171 21.498 20.5839 21.0004 20.5832H5.00067ZM13 12.9565C13.0903 12.9565 13.1748 12.9428 13.2535 12.9153C13.3315 12.8879 13.4088 12.8543 13.4853 12.8146L21.3168 7.68717C21.4193 7.62506 21.4861 7.5402 21.5172 7.43259C21.5482 7.32498 21.5424 7.21773 21.4998 7.11084C21.4724 6.97145 21.3814 6.87034 21.2268 6.8075C21.073 6.74539 20.9239 6.75803 20.7794 6.84542L13 11.9165L5.22167 6.8465C5.07722 6.75839 4.93133 6.73962 4.784 6.79017C4.63667 6.84073 4.54206 6.94039 4.50017 7.08917C4.45828 7.20039 4.45286 7.31342 4.48392 7.42825C4.51497 7.54309 4.58142 7.62975 4.68325 7.68825L12.5147 12.8146C12.5912 12.8543 12.6685 12.8879 12.7465 12.9153C12.8252 12.9421 12.9097 12.9554 13 12.9554" fill="#ECDFCC"/>
</svg>
