<svg width="18" height="18" viewBox="0 0 18 18" fill="none" xmlns="http://www.w3.org/2000/svg">
<path d="M17.625 6.5625C17.625 6.71168 17.5657 6.85476 17.4602 6.96025C17.3548 7.06574 17.2117 7.125 17.0625 7.125C16.9133 7.125 16.7702 7.06574 16.6648 6.96025C16.5593 6.85476 16.5 6.71168 16.5 6.5625V1.92094L9.96094 8.46C9.85431 8.55936 9.71327 8.61345 9.56755 8.61088C9.42182 8.60831 9.28278 8.54928 9.17972 8.44622C9.07666 8.34316 9.01763 8.20412 9.01506 8.05839C9.01248 7.91267 9.06658 7.77163 9.16594 7.665L15.7041 1.125H11.0625C10.9133 1.125 10.7702 1.06574 10.6648 0.960248C10.5593 0.854758 10.5 0.711684 10.5 0.5625C10.5 0.413316 10.5593 0.270242 10.6648 0.164752C10.7702 0.0592632 10.9133 0 11.0625 0H17.0625C17.2117 0 17.3548 0.0592632 17.4602 0.164752C17.5657 0.270242 17.625 0.413316 17.625 0.5625V6.5625ZM14.0625 9C13.9133 9 13.7702 9.05926 13.6648 9.16475C13.5593 9.27024 13.5 9.41332 13.5 9.5625V16.3125C13.5 16.3622 13.4802 16.4099 13.4451 16.4451C13.4099 16.4802 13.3622 16.5 13.3125 16.5H1.3125C1.26277 16.5 1.21508 16.4802 1.17992 16.4451C1.14475 16.4099 1.125 16.3622 1.125 16.3125V4.3125C1.125 4.26277 1.14475 4.21508 1.17992 4.17992C1.21508 4.14475 1.26277 4.125 1.3125 4.125H8.0625C8.21168 4.125 8.35476 4.06574 8.46025 3.96025C8.56574 3.85476 8.625 3.71168 8.625 3.5625C8.625 3.41332 8.56574 3.27024 8.46025 3.16475C8.35476 3.05926 8.21168 3 8.0625 3H1.3125C0.964403 3 0.630564 3.13828 0.384422 3.38442C0.138281 3.63056 0 3.9644 0 4.3125V16.3125C0 16.6606 0.138281 16.9944 0.384422 17.2406C0.630564 17.4867 0.964403 17.625 1.3125 17.625H13.3125C13.6606 17.625 13.9944 17.4867 14.2406 17.2406C14.4867 16.9944 14.625 16.6606 14.625 16.3125V9.5625C14.625 9.41332 14.5657 9.27024 14.4602 9.16475C14.3548 9.05926 14.2117 9 14.0625 9Z" fill="#9D9D9D"/>
</svg>
