<svg width="16" height="17" viewBox="0 0 16 17" fill="none" xmlns="http://www.w3.org/2000/svg">
<path d="M12.25 0.5H3.75C1.67893 0.5 0 2.17893 0 4.25V12.75C0 14.8211 1.67893 16.5 3.75 16.5H12.25C14.3211 16.5 16 14.8211 16 12.75V4.25C16 2.17893 14.3211 0.5 12.25 0.5Z" fill="#F4F2ED"/>
<mask id="mask0_2559_587" style="mask-type:luminance" maskUnits="userSpaceOnUse" x="3" y="2" width="10" height="13">
<path d="M3.8125 2.25H12.1475V14.75H3.8125V2.25Z" fill="white"/>
</mask>
<g mask="url(#mask0_2559_587)">
<path d="M5.89685 14.7499C7.04685 14.7499 7.98016 13.8166 7.98016 12.6666V10.5833H5.89685C4.74685 10.5833 3.81348 11.5166 3.81348 12.6666C3.81348 13.8166 4.74685 14.7499 5.89685 14.7499Z" fill="#0ACF83"/>
<path d="M3.81348 8.50006C3.81348 7.35006 4.74685 6.41675 5.89685 6.41675H7.98016V10.5834H5.89685C4.74685 10.5834 3.81348 9.65006 3.81348 8.50006Z" fill="#A259FF"/>
<path d="M3.81348 4.33331C3.81348 3.18331 4.74685 2.25 5.89685 2.25H7.98016V6.41669H5.89685C4.74685 6.41669 3.81348 5.48331 3.81348 4.33331Z" fill="#F24E1E"/>
<path d="M7.98047 2.25H10.0638C11.2138 2.25 12.1472 3.18331 12.1472 4.33331C12.1472 5.48331 11.2138 6.41669 10.0638 6.41669H7.98047V2.25Z" fill="#FF7262"/>
<path d="M12.1472 8.50006C12.1472 9.65006 11.2138 10.5834 10.0638 10.5834C8.91378 10.5834 7.98047 9.65006 7.98047 8.50006C7.98047 7.35006 8.91378 6.41675 10.0638 6.41675C11.2138 6.41675 12.1472 7.35006 12.1472 8.50006Z" fill="#1ABCFE"/>
</g>
</svg>
