<svg width="16" height="17" viewBox="0 0 16 17" fill="none" xmlns="http://www.w3.org/2000/svg">
<path d="M12.25 0.5H3.75C1.67893 0.5 0 2.17893 0 4.25V12.75C0 14.8211 1.67893 16.5 3.75 16.5H12.25C14.3211 16.5 16 14.8211 16 12.75V4.25C16 2.17893 14.3211 0.5 12.25 0.5Z" fill="#F03C2E"/>
<mask id="mask0_2559_555" style="mask-type:luminance" maskUnits="userSpaceOnUse" x="1" y="2" width="14" height="13">
<path d="M1.75 2.25H14.25V14.75H1.75V2.25Z" fill="white"/>
</mask>
<g mask="url(#mask0_2559_555)">
<path d="M14.0145 7.94334L8.55704 2.48591C8.44452 2.37326 8.3011 2.29654 8.14494 2.26547C7.98879 2.23439 7.82692 2.25036 7.67985 2.31134C7.58223 2.35186 7.49352 2.41117 7.41879 2.48591L6.28597 3.61872L7.72347 5.05622C8.05785 4.93903 8.44066 5.01909 8.70704 5.28553C8.83386 5.41257 8.9224 5.57271 8.96253 5.74768C9.00266 5.92264 8.99276 6.10536 8.93397 6.27497L10.3195 7.66053C10.6547 7.54491 11.0414 7.61947 11.309 7.88784C11.443 8.02181 11.5343 8.19253 11.5712 8.3784C11.6082 8.56427 11.5891 8.75693 11.5165 8.93197C11.4192 9.16665 11.2327 9.35309 10.9979 9.45028C10.7632 9.54747 10.4995 9.54748 10.2647 9.45028C10.1485 9.40209 10.0428 9.33153 9.95391 9.24253C9.67266 8.96128 9.60316 8.54722 9.74535 8.20072L8.45316 6.90853V10.309C8.54697 10.3554 8.63269 10.4166 8.70704 10.4902C8.88668 10.6699 8.9876 10.9135 8.9876 11.1676C8.9876 11.4216 8.88668 11.6653 8.70704 11.8449C8.52739 12.0245 8.28375 12.1255 8.02969 12.1255C7.77564 12.1255 7.53199 12.0245 7.35235 11.8449C7.21828 11.711 7.12697 11.5403 7.08996 11.3545C7.05296 11.1686 7.07193 10.976 7.14447 10.8009C7.19265 10.6847 7.26329 10.5791 7.35235 10.4902C7.44491 10.398 7.54766 10.3281 7.66604 10.2812V6.84916C7.54857 6.80116 7.44191 6.73012 7.35235 6.64022C7.21785 6.50587 7.12641 6.33451 7.08968 6.14798C7.05295 5.96146 7.07259 5.76822 7.1461 5.59291L5.72816 4.17584L1.98597 7.91409C1.87332 8.02667 1.79659 8.17014 1.76549 8.32634C1.7344 8.48254 1.75033 8.64445 1.81129 8.79159C1.85182 8.88927 1.91118 8.97802 1.98597 9.05278L7.44379 14.5098C7.51852 14.5845 7.60723 14.6438 7.70485 14.6843C7.90213 14.7659 8.1237 14.7659 8.32097 14.6843C8.4186 14.6438 8.5073 14.5845 8.58204 14.5098L14.0145 9.08597C14.0893 9.01123 14.1486 8.92248 14.1891 8.82479C14.2296 8.72711 14.2505 8.6224 14.2505 8.51666C14.2505 8.4109 14.2296 8.30618 14.1891 8.20849C14.1486 8.11079 14.0893 8.02203 14.0145 7.94728" fill="white"/>
</g>
</svg>
