<svg width="24" height="24" viewBox="0 0 24 24" fill="none" xmlns="http://www.w3.org/2000/svg">
<path d="M7.02423 2.30982C7.77555 2.56335 8.49007 2.91506 9.14923 3.35582C10.0807 3.11739 11.0387 2.99777 12.0002 2.99982C12.9932 2.99982 13.9512 3.12382 14.8492 3.35482C15.5081 2.91449 16.2223 2.56312 16.9732 2.30982C17.6702 2.07282 18.6632 1.68882 19.2532 2.34182C19.6532 2.78582 19.7532 3.52982 19.8242 4.09782C19.9042 4.73182 19.9232 5.55782 19.7132 6.37782C20.5162 7.41482 21.0002 8.65182 21.0002 9.99982C21.0002 12.0418 19.8942 13.8148 18.2572 15.0428C17.469 15.6257 16.5954 16.0832 15.6672 16.3988C15.8812 16.8888 16.0002 17.4308 16.0002 17.9998V20.9998C16.0002 21.265 15.8949 21.5194 15.7073 21.7069C15.5198 21.8945 15.2654 21.9998 15.0002 21.9998H9.00023C8.73501 21.9998 8.48066 21.8945 8.29312 21.7069C8.10559 21.5194 8.00023 21.265 8.00023 20.9998V20.0088C7.04523 20.1258 6.24423 20.0218 5.56323 19.7328C4.85123 19.4308 4.35523 18.9628 3.98223 18.5148C3.62823 18.0908 3.24223 17.1348 2.68423 16.9488C2.5596 16.9073 2.44437 16.8417 2.34512 16.7557C2.24586 16.6696 2.16452 16.5649 2.10574 16.4474C1.98703 16.2102 1.96742 15.9355 2.05123 15.6838C2.13504 15.4321 2.3154 15.224 2.55263 15.1053C2.78986 14.9866 3.06454 14.967 3.31623 15.0508C3.98223 15.2728 4.41623 15.7528 4.71323 16.1388C5.19323 16.7588 5.58323 17.5688 6.34323 17.8918C6.65623 18.0248 7.11523 18.1118 7.83323 18.0138L8.00023 17.9798C8.00253 17.4357 8.11584 16.8977 8.33323 16.3988C7.4051 16.0832 6.53143 15.6257 5.74323 15.0428C4.10623 13.8148 3.00023 12.0428 3.00023 9.99982C3.00023 8.65382 3.48323 7.41782 4.28423 6.38182C4.07423 5.56182 4.09223 4.73382 4.17223 4.09882L4.17723 4.06082C4.25023 3.47882 4.33523 2.79382 4.74323 2.34182C5.33323 1.68882 6.32723 2.07382 7.02323 2.31082L7.02423 2.30982Z" fill="#181C14"/>
</svg>
