<svg width="24" height="25" viewBox="0 0 24 25" fill="none" xmlns="http://www.w3.org/2000/svg">
<path d="M22.6798 1.82019C21.7989 0.939262 20.739 0.4992 19.5001 0.500001H4.49993C3.26022 0.500001 2.20031 0.940063 1.32019 1.82019C0.439262 2.70111 -0.00079975 3.76102 1.09106e-06 4.99993V20.0001C1.09106e-06 21.2398 0.440063 22.2997 1.32019 23.1798C2.20111 24.0607 3.26103 24.5008 4.49993 24.5H8.0004C8.22864 24.5 8.40042 24.492 8.51574 24.476C8.65005 24.4494 8.77127 24.3778 8.8593 24.273C8.97382 24.1528 9.03108 23.9786 9.03108 23.7504L9.02267 22.6873C9.01787 22.0098 9.01547 21.4732 9.01547 21.0776L8.65509 21.1401C8.42685 21.1817 8.13815 21.2001 7.78898 21.1953C7.42464 21.1884 7.06146 21.1518 6.70304 21.086C6.32116 21.0167 5.96174 20.856 5.65554 20.6175C5.33414 20.3745 5.09445 20.0392 4.96842 19.6565L4.81225 19.2961C4.68012 19.0121 4.5148 18.7448 4.31974 18.4997C4.0955 18.2082 3.86886 18.0104 3.63982 17.9063L3.53171 17.8282C3.45664 17.7738 3.38811 17.7109 3.32749 17.6408C3.2696 17.5756 3.22218 17.5019 3.18695 17.4222C3.15571 17.3485 3.18174 17.2884 3.26503 17.242C3.34832 17.1939 3.49968 17.1703 3.71911 17.1711L4.03143 17.2192C4.23965 17.26 4.49712 17.3845 4.80384 17.5927C5.11384 17.8041 5.3728 18.0819 5.56184 18.406C5.80209 18.832 6.0912 19.1576 6.42915 19.3826C6.76791 19.6069 7.10907 19.719 7.45263 19.719C7.79619 19.719 8.0933 19.693 8.34396 19.6409C8.58672 19.5906 8.82263 19.5115 9.0467 19.4054C9.1404 18.7079 9.39547 18.1714 9.8119 17.7958C9.27184 17.7424 8.73657 17.6484 8.21062 17.5147C7.69738 17.3739 7.20381 17.1692 6.74148 16.9056C6.25767 16.6422 5.83033 16.2863 5.48376 15.8581C5.15061 15.4417 4.87712 14.8951 4.6633 14.2184C4.45027 13.5409 4.34376 12.7593 4.34376 11.8735C4.34376 10.6138 4.75499 9.54069 5.57746 8.65416C5.19305 7.70677 5.22949 6.64485 5.68677 5.46842C5.98949 5.37392 6.43756 5.44399 7.03098 5.67864C7.62441 5.91328 8.05926 6.11349 8.33555 6.27927C8.61184 6.44744 8.83328 6.58839 8.99985 6.70211C9.97635 6.42984 10.9857 6.29322 11.9994 6.29609C13.0309 6.29609 14.0311 6.43143 15.0002 6.70211L15.5936 6.32732C16.05 6.05327 16.5315 5.8232 17.0315 5.6402C17.5833 5.43198 18.0053 5.37472 18.2976 5.46842C18.7661 6.64565 18.8073 7.70797 18.4213 8.65536C19.2446 9.54029 19.6562 10.6134 19.6562 11.8747C19.6562 12.7605 19.5493 13.5441 19.3355 14.2256C19.1225 14.9079 18.8466 15.4549 18.5078 15.8665C18.1542 16.2882 17.7252 16.6406 17.2429 16.9056C16.7384 17.1867 16.2487 17.3897 15.7738 17.5147C15.2478 17.6488 14.7126 17.7432 14.1725 17.797C14.713 18.2655 14.9837 19.0046 14.9845 20.0145V23.7504C14.9845 23.9266 15.0106 24.0695 15.0626 24.1793C15.0869 24.2319 15.1216 24.2792 15.1645 24.3182C15.2074 24.3572 15.2577 24.3871 15.3125 24.4063C15.427 24.4479 15.5287 24.4736 15.6176 24.4832C15.7065 24.4944 15.8338 24.4996 15.9996 24.4988H19.5001C20.7398 24.4988 21.7997 24.0587 22.6798 23.1786C23.5599 22.2985 24 21.2386 24 19.9989V4.99993C24 3.76022 23.5607 2.70031 22.6798 1.82019Z" fill="#ECDFCC" fill-opacity="0.5"/>
</svg>
