<svg width="25" height="24" viewBox="0 0 25 24" fill="none" xmlns="http://www.w3.org/2000/svg">
<path d="M7.62091 2.30982C8.37223 2.56335 9.08675 2.91506 9.74591 3.35582C10.6774 3.11739 11.6354 2.99777 12.5969 2.99982C13.5899 2.99982 14.5479 3.12382 15.4459 3.35482C16.1048 2.91449 16.819 2.56312 17.5699 2.30982C18.2669 2.07282 19.2599 1.68882 19.8499 2.34182C20.2499 2.78582 20.3499 3.52982 20.4209 4.09782C20.5009 4.73182 20.5199 5.55782 20.3099 6.37782C21.1129 7.41482 21.5969 8.65182 21.5969 9.99982C21.5969 12.0418 20.4909 13.8148 18.8539 15.0428C18.0657 15.6257 17.192 16.0832 16.2639 16.3988C16.4779 16.8888 16.5969 17.4308 16.5969 17.9998V20.9998C16.5969 21.265 16.4916 21.5194 16.304 21.7069C16.1165 21.8945 15.8621 21.9998 15.5969 21.9998H9.59691C9.33169 21.9998 9.07734 21.8945 8.8898 21.7069C8.70227 21.5194 8.59691 21.265 8.59691 20.9998V20.0088C7.64191 20.1258 6.84091 20.0218 6.15991 19.7328C5.44791 19.4308 4.95191 18.9628 4.57891 18.5148C4.22491 18.0908 3.83891 17.1348 3.28091 16.9488C3.15628 16.9073 3.04105 16.8417 2.9418 16.7557C2.84254 16.6696 2.7612 16.5649 2.70242 16.4474C2.58371 16.2102 2.5641 15.9355 2.64791 15.6838C2.73172 15.4321 2.91208 15.224 3.14931 15.1053C3.38654 14.9866 3.66122 14.967 3.91291 15.0508C4.57891 15.2728 5.01291 15.7528 5.30991 16.1388C5.78991 16.7588 6.17991 17.5688 6.93991 17.8918C7.25291 18.0248 7.71191 18.1118 8.42991 18.0138L8.59691 17.9798C8.59921 17.4357 8.71252 16.8977 8.92991 16.3988C8.00178 16.0832 7.12811 15.6257 6.33991 15.0428C4.70291 13.8148 3.59691 12.0428 3.59691 9.99982C3.59691 8.65382 4.07991 7.41782 4.88091 6.38182C4.67091 5.56182 4.68891 4.73382 4.76891 4.09882L4.77391 4.06082C4.84691 3.47882 4.93191 2.79382 5.33991 2.34182C5.92991 1.68882 6.92391 2.07382 7.61991 2.31082L7.62091 2.30982Z" fill="#ECDFCC"/>
</svg>
