<svg width="20" height="20" viewBox="0 0 20 20" fill="none" xmlns="http://www.w3.org/2000/svg">
<path d="M19.1372 4.68001C19.3739 3.95555 19.4551 3.1893 19.3754 2.43133C19.2958 1.67335 19.0571 0.940708 18.675 0.281263C18.6256 0.1957 18.5545 0.124657 18.469 0.0752838C18.3834 0.025911 18.2863 -5.0016e-05 18.1875 1.33294e-05C17.3271 -0.00189532 16.4787 0.201199 15.7124 0.592475C14.9462 0.983751 14.2842 1.55195 13.7812 2.25001H11.3438C10.8408 1.55195 10.1788 0.983751 9.41256 0.592475C8.64631 0.201199 7.79787 -0.00189532 6.9375 1.33294e-05C6.8387 -5.0016e-05 6.74163 0.025911 6.65605 0.0752838C6.57047 0.124657 6.4994 0.1957 6.45 0.281263C6.0679 0.940708 5.82923 1.67335 5.74959 2.43133C5.66995 3.1893 5.75112 3.95555 5.98781 4.68001C5.5132 5.47674 5.2586 6.38518 5.25 7.31251V8.06251C5.25165 9.34696 5.74092 10.5829 6.61892 11.5204C7.49691 12.4579 8.69811 13.0271 9.97969 13.1128C9.35041 13.7731 8.99958 14.6504 9 15.5625V16.5H6.5625C5.91603 16.5 5.29605 16.2432 4.83893 15.7861C4.38181 15.329 4.125 14.709 4.125 14.0625C4.125 13.1177 3.74967 12.2115 3.08157 11.5434C2.41347 10.8753 1.50733 10.5 0.5625 10.5C0.413316 10.5 0.270242 10.5593 0.164752 10.6648C0.0592632 10.7703 0 10.9133 0 11.0625C0 11.2117 0.0592632 11.3548 0.164752 11.4603C0.270242 11.5658 0.413316 11.625 0.5625 11.625C1.20897 11.625 1.82895 11.8818 2.28607 12.3389C2.74319 12.7961 3 13.416 3 14.0625C3 15.0073 3.37533 15.9135 4.04343 16.5816C4.71153 17.2497 5.61767 17.625 6.5625 17.625H9V19.3125C9 19.4617 9.05926 19.6048 9.16475 19.7103C9.27024 19.8157 9.41332 19.875 9.5625 19.875C9.71168 19.875 9.85476 19.8157 9.96025 19.7103C10.0657 19.6048 10.125 19.4617 10.125 19.3125V15.5625C10.125 14.916 10.3818 14.2961 10.8389 13.8389C11.296 13.3818 11.916 13.125 12.5625 13.125C13.209 13.125 13.829 13.3818 14.2861 13.8389C14.7432 14.2961 15 14.916 15 15.5625V19.3125C15 19.4617 15.0593 19.6048 15.1648 19.7103C15.2702 19.8157 15.4133 19.875 15.5625 19.875C15.7117 19.875 15.8548 19.8157 15.9602 19.7103C16.0657 19.6048 16.125 19.4617 16.125 19.3125V15.5625C16.1254 14.6504 15.7746 13.7731 15.1453 13.1128C16.4269 13.0271 17.6281 12.4579 18.5061 11.5204C19.3841 10.5829 19.8734 9.34696 19.875 8.06251V7.31251C19.8664 6.38518 19.6118 5.47674 19.1372 4.68001ZM18.75 8.06251C18.75 9.1068 18.3352 10.1083 17.5967 10.8467C16.8583 11.5852 15.8568 12 14.8125 12H10.3125C9.26821 12 8.26669 11.5852 7.52827 10.8467C6.78984 10.1083 6.375 9.1068 6.375 8.06251V7.31251C6.38482 6.52179 6.62244 5.75068 7.05938 5.09158C7.11678 5.01539 7.15387 4.92586 7.16716 4.83139C7.18044 4.73693 7.16948 4.64064 7.13531 4.55158C6.92305 4.00352 6.82543 3.41776 6.84849 2.83049C6.87155 2.24323 7.01479 1.66692 7.26937 1.1372C7.93578 1.18747 8.58129 1.39244 9.15462 1.73583C9.72796 2.07921 10.2133 2.55155 10.5722 3.11533C10.6231 3.19498 10.6932 3.26053 10.7761 3.30592C10.859 3.35131 10.952 3.37507 11.0466 3.37501H14.0784C14.1729 3.37517 14.2658 3.35155 14.3487 3.30633C14.4316 3.26111 14.5018 3.19575 14.5528 3.11626C14.9115 2.55221 15.3968 2.07961 15.9701 1.73605C16.5435 1.39249 17.1891 1.18744 17.8556 1.1372C18.1102 1.66692 18.2535 2.24323 18.2765 2.83049C18.2996 3.41776 18.202 4.00352 17.9897 4.55158C17.9556 4.64023 17.9445 4.73607 17.9575 4.83017C17.9704 4.92427 18.007 5.01355 18.0637 5.0897C18.5021 5.74895 18.7404 6.5209 18.75 7.31251V8.06251Z" fill="#9D9D9D"/>
</svg>
