<svg width="20" height="12" viewBox="0 0 20 12" fill="none" xmlns="http://www.w3.org/2000/svg">
<path d="M7.87 6.15267L7 0.465276C8.95185 -0.155092 11.0482 -0.155092 13 0.465276L12.13 6.15267C12.06 6.64245 11.63 7.00229 11.13 7.00229H8.86C8.62055 7.0026 8.38894 6.91702 8.20726 6.76111C8.02559 6.6052 7.90592 6.38931 7.87 6.15267ZM20 10.0009C20 9.21128 19.53 8.5016 18.8 8.17175C18.3189 5.86053 16.9559 3.8276 15 2.50434L13.24 7.34213C13.1 7.74195 12.72 8.00183 12.3 8.00183H7.7C7.28 8.00183 6.9 7.74195 6.76 7.34213L5 2.50434C3.04779 3.82674 1.68542 5.85503 1.2 8.16176C0.47 8.5016 0 9.20128 0 10.0009L6.45 11.8401C6.81 11.94 7.18 12 7.55 12H12.43C12.8 12 13.17 11.94 13.53 11.8401L20 10.0009Z" fill="white"/>
</svg>
