<svg width="32" height="32" viewBox="0 0 32 32" fill="none" xmlns="http://www.w3.org/2000/svg">
<g clip-path="url(#clip0_3504_196)">
<path d="M13 27.0008V19.0008H19V27.0008H27V15.0008C27.0001 14.8694 26.9743 14.7393 26.9241 14.6179C26.8739 14.4965 26.8003 14.3862 26.7075 14.2933L16.7075 4.29329C16.6146 4.20031 16.5043 4.12655 16.3829 4.07623C16.2615 4.0259 16.1314 4 16 4C15.8686 4 15.7385 4.0259 15.6171 4.07623C15.4957 4.12655 15.3854 4.20031 15.2925 4.29329L5.2925 14.2933C5.19967 14.3862 5.12605 14.4965 5.07586 14.6179C5.02568 14.7393 4.9999 14.8694 5 15.0008V27.0008H13Z" stroke="#262626" stroke-linecap="round" stroke-linejoin="round"/>
</g>
<defs>
<clipPath id="clip0_3504_196">
<rect width="32" height="32" fill="white"/>
</clipPath>
</defs>
</svg>
