<svg width="23" height="24" viewBox="0 0 23 24" fill="none" xmlns="http://www.w3.org/2000/svg">
<path d="M8.5 23.5008V15.5008H14.5V23.5008H22.5V11.5008C22.5001 11.3694 22.4743 11.2393 22.4241 11.1179C22.3739 10.9965 22.3003 10.8862 22.2075 10.7933L12.2075 0.793287C12.1146 0.70031 12.0043 0.626551 11.8829 0.576227C11.7615 0.525903 11.6314 0.5 11.5 0.5C11.3686 0.5 11.2385 0.525903 11.1171 0.576227C10.9957 0.626551 10.8854 0.70031 10.7925 0.793287L0.7925 10.7933C0.699666 10.8862 0.626052 10.9965 0.575864 11.1179C0.525676 11.2393 0.499897 11.3694 0.5 11.5008V23.5008H8.5Z" stroke="white" stroke-linecap="round" stroke-linejoin="round"/>
</svg>
