<svg width="16" height="17" viewBox="0 0 16 17" fill="none" xmlns="http://www.w3.org/2000/svg">
<path d="M12.25 0.5H3.75C1.67893 0.5 0 2.17893 0 4.25V12.75C0 14.8211 1.67893 16.5 3.75 16.5H12.25C14.3211 16.5 16 14.8211 16 12.75V4.25C16 2.17893 14.3211 0.5 12.25 0.5Z" fill="#E14E1D"/>
<path d="M3 2.875L3.53813 8.91206H10.4575L10.2253 11.5014L7.99744 12.1038L5.77375 11.5023L5.62506 9.83969H3.62125L3.90781 13.0448L7.997 14.1805L12.0914 13.0448L12.6403 6.91594H5.364L5.18131 4.87156H12.8212L13 2.875H3Z" fill="white"/>
<path d="M8 2.875H3L3.53813 8.91206H8V6.91594H5.364L5.18131 4.87156H8V2.875ZM8 12.1029L7.99744 12.1038L5.77375 11.5023L5.62506 9.83969H3.62125L3.90781 13.0448L7.997 14.1805L8.00006 14.1796L8 12.1029Z" fill="#EBEBEB"/>
</svg>
