<svg width="16" height="17" viewBox="0 0 16 17" fill="none" xmlns="http://www.w3.org/2000/svg">
<path d="M12.25 0.5H3.75C1.67893 0.5 0 2.17893 0 4.25V12.75C0 14.8211 1.67893 16.5 3.75 16.5H12.25C14.3211 16.5 16 14.8211 16 12.75V4.25C16 2.17893 14.3211 0.5 12.25 0.5Z" fill="#F0DB4F"/>
<path d="M4.20709 13.8707L5.43147 13.1297C5.66772 13.5485 5.88259 13.9029 6.39803 13.9029C6.89209 13.9029 7.20359 13.7096 7.20359 12.9579V7.84552H8.70722V12.9791C8.70722 14.5365 7.79434 15.2453 6.46247 15.2453C5.25966 15.2453 4.56147 14.6224 4.20703 13.8706M9.52391 13.7096L10.7482 13.0008C11.0705 13.5271 11.4893 13.9137 12.2303 13.9137C12.8534 13.9137 13.2507 13.6022 13.2507 13.1726C13.2507 12.6571 12.8425 12.4745 12.1552 12.1738L11.7793 12.0126C10.6945 11.5509 9.97491 10.9709 9.97491 9.74652C9.97491 8.61877 10.8342 7.75952 12.1767 7.75952C13.1326 7.75952 13.82 8.09252 14.314 8.96246L13.1433 9.71427C12.8855 9.25246 12.6063 9.0699 12.1767 9.0699C11.7363 9.0699 11.4571 9.34915 11.4571 9.71427C11.4571 10.1653 11.7363 10.348 12.3807 10.6273L12.7566 10.7883C14.0347 11.3361 14.7543 11.8945 14.7543 13.1511C14.7543 14.5045 13.691 15.2455 12.2626 15.2455C10.8664 15.2455 9.96422 14.5796 9.52391 13.7096Z" fill="#323330"/>
</svg>
