<svg width="32" height="32" viewBox="0 0 32 32" fill="none" xmlns="http://www.w3.org/2000/svg">
<g clip-path="url(#clip0_3504_202)">
<path d="M10 20V28" stroke="#262626" stroke-linecap="round" stroke-linejoin="round"/>
<path d="M10 15C12.2091 15 14 13.8807 14 12.5C14 11.1193 12.2091 10 10 10C7.79086 10 6 11.1193 6 12.5C6 13.8807 7.79086 15 10 15Z" stroke="#262626" stroke-linecap="round" stroke-linejoin="round"/>
<path d="M20 10C22.2091 10 24 8.88071 24 7.5C24 6.11929 22.2091 5 20 5C17.7909 5 16 6.11929 16 7.5C16 8.88071 17.7909 10 20 10Z" stroke="#262626" stroke-linecap="round" stroke-linejoin="round"/>
<path d="M2 15.9999L10 19.9999L30 9.99992L23.9037 6.95117" stroke="#262626" stroke-linecap="round" stroke-linejoin="round"/>
<path d="M16.5241 8.73828L12.6953 10.6533" stroke="#262626" stroke-linecap="round" stroke-linejoin="round"/>
<path d="M30 10V18L10 28L2 24V16L6.52375 13.7375" stroke="#262626" stroke-linecap="round" stroke-linejoin="round"/>
</g>
<defs>
<clipPath id="clip0_3504_202">
<rect width="32" height="32" fill="white"/>
</clipPath>
</defs>
</svg>
