<svg width="9" height="18" viewBox="0 0 9 18" fill="none" xmlns="http://www.w3.org/2000/svg">
<path d="M8.155 10.384V13.923C8.155 15.051 7.75767 16.0123 6.963 16.807C6.16833 17.6017 5.20667 17.9993 4.078 18C2.94933 18.0007 1.98767 17.603 1.193 16.807C0.398333 16.011 0.000666667 15.0497 0 13.923L0 10.384H1L1 13.923C1 14.7697 1.30133 15.494 1.904 16.096C2.50733 16.6987 3.232 17 4.078 17C4.924 17 5.64833 16.6987 6.251 16.096C6.85367 15.4933 7.155 14.769 7.155 13.923V10.384H8.155ZM4.578 12.5H3.578L3.578 5.5H4.578L4.578 12.5ZM8.155 7.615H7.155V4.077C7.155 3.23033 6.85367 2.506 6.251 1.904C5.64833 1.30133 4.924 1 4.078 1C3.232 1 2.50767 1.30133 1.905 1.904C1.30233 2.50667 1.001 3.231 1.001 4.077V7.615H0.000999928L0.000999928 4.077C0.000999928 2.949 0.398333 1.98733 1.193 1.192C1.98767 0.396666 2.94933 -0.000666667 4.078 0C5.20667 0.000666667 6.16833 0.398334 6.963 1.193C7.75767 1.98767 8.15533 2.949 8.156 4.077L8.155 7.615Z" fill="#181C14"/>
</svg>
