<svg width="25" height="24" viewBox="0 0 25 24" fill="none" xmlns="http://www.w3.org/2000/svg">
<path d="M21.93 0C22.6373 0 23.3155 0.280951 23.8156 0.781048C24.3157 1.28115 24.5967 1.95942 24.5967 2.66667V21.3333C24.5967 22.0406 24.3157 22.7189 23.8156 23.219C23.3155 23.719 22.6373 24 21.93 24H3.26335C2.5561 24 1.87783 23.719 1.37773 23.219C0.877631 22.7189 0.59668 22.0406 0.59668 21.3333V2.66667C0.59668 1.95942 0.877631 1.28115 1.37773 0.781048C1.87783 0.280951 2.5561 0 3.26335 0H21.93ZM21.2633 20.6667V13.6C21.2633 12.4472 20.8054 11.3416 19.9902 10.5264C19.1751 9.71128 18.0695 9.25333 16.9167 9.25333C15.7833 9.25333 14.4633 9.94667 13.8233 10.9867V9.50667H10.1033V20.6667H13.8233V14.0933C13.8233 13.0667 14.65 12.2267 15.6767 12.2267C16.1718 12.2267 16.6465 12.4233 16.9966 12.7734C17.3467 13.1235 17.5433 13.5983 17.5433 14.0933V20.6667H21.2633ZM5.77001 7.41333C6.3641 7.41333 6.93385 7.17733 7.35393 6.75725C7.77401 6.33717 8.01001 5.76742 8.01001 5.17333C8.01001 3.93333 7.01001 2.92 5.77001 2.92C5.17239 2.92 4.59925 3.1574 4.17667 3.57999C3.75408 4.00257 3.51668 4.57571 3.51668 5.17333C3.51668 6.41333 4.53001 7.41333 5.77001 7.41333ZM7.62335 20.6667V9.50667H3.93001V20.6667H7.62335Z" fill="#ECDFCC"/>
</svg>
