<svg width="20" height="20" viewBox="0 0 20 20" fill="none" xmlns="http://www.w3.org/2000/svg">
<path d="M3.33301 13.3333C4.71144 13.3339 6.06847 12.9924 7.28253 12.3397C8.49659 11.6869 9.52976 10.7431 10.2895 9.59297C11.0492 8.44281 11.5118 7.12215 11.6357 5.7493C11.7597 4.37646 11.5411 2.99431 10.9997 1.72667C12.4514 1.90288 13.8312 2.45803 15.0005 3.33633C16.1697 4.21463 17.0873 5.38516 17.6609 6.73034C18.2346 8.07552 18.4441 9.54797 18.2686 10.9998C18.093 12.4516 17.5385 13.8316 16.6607 15.0013C15.7829 16.1709 14.6128 17.089 13.2679 17.6632C11.9229 18.2375 10.4506 18.4477 8.99868 18.2728C7.54679 18.0978 6.1665 17.5439 4.99647 16.6667C3.82643 15.7894 2.90785 14.6197 2.33301 13.275C2.66301 13.3139 2.99634 13.3333 3.33301 13.3333Z" fill="#021327"/>
</svg>
