<svg width="24" height="24" viewBox="0 0 24 24" fill="none" xmlns="http://www.w3.org/2000/svg">
<path d="M16.0488 14.667C16.1872 14.5748 16.3465 14.5187 16.5122 14.5036C16.6779 14.4886 16.8447 14.5151 16.9975 14.5807L22.8925 17.222C23.0912 17.3069 23.257 17.4539 23.3651 17.6409C23.4733 17.8279 23.518 18.0449 23.4925 18.2595C23.2983 19.7108 22.5836 21.0422 21.4813 22.006C20.3791 22.9699 18.9642 23.5006 17.5 23.4995C12.9913 23.4995 8.66731 21.7084 5.47919 18.5203C2.29107 15.3322 0.500002 11.0082 0.500002 6.49948C0.498882 5.03524 1.0296 3.62042 1.99345 2.51815C2.95731 1.41588 4.28869 0.701186 5.74 0.506984C5.95454 0.481497 6.17157 0.526177 6.3586 0.634337C6.54562 0.742497 6.69259 0.908319 6.7775 1.10698L9.41875 7.00698C9.48365 7.15852 9.51007 7.32375 9.49568 7.48797C9.48129 7.65218 9.42652 7.8103 9.33625 7.94823L6.665 11.1245C6.57025 11.2675 6.51421 11.4326 6.50238 11.6037C6.49055 11.7748 6.52333 11.9461 6.5975 12.1007C7.63125 14.217 9.81875 16.3782 11.9413 17.402C12.0967 17.4758 12.2688 17.5079 12.4404 17.4949C12.612 17.482 12.7773 17.4246 12.92 17.3282L16.0488 14.667Z" stroke="white" stroke-linecap="round" stroke-linejoin="round"/>
</svg>
