<svg width="112" height="101" viewBox="0 0 112 101" fill="none" xmlns="http://www.w3.org/2000/svg">
<path d="M0.379869 8.29627L34.8435 97.3272C35.1844 98.209 35.7376 98.993 36.4542 99.6097C37.1708 100.226 38.0285 100.657 38.9513 100.862C39.874 101.068 40.8333 101.043 41.7439 100.789C42.6546 100.535 43.4885 100.06 44.1716 99.4065L63.5976 80.8249L75.5105 92.7321C75.9125 93.1328 76.4242 93.4054 76.981 93.5155C77.5378 93.6256 78.1147 93.5683 78.639 93.3507C79.1632 93.1332 79.6112 92.7651 79.9264 92.2931C80.2417 91.8211 80.41 91.2663 80.4101 90.6987V64.7419L110.227 36.2233C110.967 35.5155 111.504 34.6228 111.783 33.6377C112.062 32.6526 112.072 31.6108 111.813 30.6203C111.554 29.6297 111.035 28.7264 110.31 28.0038C109.585 27.2811 108.68 26.7655 107.688 26.5103L7.1692 0.66258C6.14727 0.400792 5.07297 0.425496 4.06415 0.733982C3.05533 1.04247 2.15095 1.62282 1.45021 2.41138C0.749458 3.19995 0.279417 4.16626 0.0916248 5.20434C-0.0961671 6.24243 0.00554991 7.31218 0.385621 8.29627H0.379869ZM14.3549 14.8443L77.3543 55.9192L67.3886 65.4541L14.3549 14.8443Z" fill="#8BB164"/>
</svg>
