<svg width="95" height="95" viewBox="0 0 95 95" fill="none" xmlns="http://www.w3.org/2000/svg">
<rect width="95" height="95" rx="47.5" fill="#A7F459"/>
<path d="M28.1322 32.7198L40.1329 63.7217C40.2516 64.0287 40.4443 64.3018 40.6938 64.5165C40.9433 64.7312 41.242 64.881 41.5633 64.9527C41.8846 65.0243 42.2187 65.0155 42.5358 64.9271C42.8529 64.8386 43.1432 64.6733 43.3811 64.4457L50.1455 57.9753L54.2938 62.1216C54.4338 62.2611 54.6119 62.3561 54.8058 62.3944C54.9997 62.4327 55.2006 62.4128 55.3832 62.337C55.5657 62.2613 55.7217 62.1331 55.8315 61.9687C55.9413 61.8044 55.9999 61.6112 55.9999 61.4135V52.375L66.3826 42.4444C66.6402 42.1979 66.8272 41.8871 66.9243 41.544C67.0215 41.201 67.0251 40.8382 66.935 40.4933C66.8448 40.1484 66.6641 39.8338 66.4116 39.5822C66.159 39.3306 65.8438 39.151 65.4985 39.0621L30.4963 30.0616C30.1405 29.9704 29.7664 29.979 29.4151 30.0865C29.0638 30.1939 28.7489 30.396 28.5049 30.6705C28.2609 30.9451 28.0972 31.2816 28.0318 31.6431C27.9664 32.0046 28.0018 32.3771 28.1342 32.7198H28.1322ZM32.9985 34.9999L54.9358 49.3028L51.4656 52.623L32.9985 34.9999Z" fill="#181C14"/>
</svg>
