<svg width="16" height="17" viewBox="0 0 16 17" fill="none" xmlns="http://www.w3.org/2000/svg">
<path d="M8 9.73706C8.69036 9.73706 9.25 9.17742 9.25 8.48706C9.25 7.7967 8.69036 7.23706 8 7.23706C7.30964 7.23706 6.75 7.7967 6.75 8.48706C6.75 9.17742 7.30964 9.73706 8 9.73706Z" fill="#00D8FF"/>
<path d="M8 11.3531C6.49757 11.3893 4.99892 11.1868 3.56 10.7531C2.89531 10.5424 2.27537 10.2105 1.7315 9.77408C1.52389 9.62508 1.35101 9.43289 1.22474 9.21073C1.09847 8.98856 1.0218 8.74169 1 8.48708C1 7.66058 1.908 6.85058 3.429 6.32058C4.90646 5.85134 6.44999 5.62375 8 5.64658C9.52934 5.62544 11.0522 5.84892 12.511 6.30858C13.151 6.51289 13.7499 6.82876 14.28 7.24158C14.4838 7.38393 14.6538 7.56922 14.7782 7.78442C14.9026 7.99961 14.9783 8.23946 15 8.48708C15 9.34608 13.985 10.2166 12.35 10.7576C10.939 11.1773 9.47192 11.3781 8 11.3531ZM8 6.24458C6.51709 6.2252 5.04051 6.44157 3.6255 6.88558C2.2255 7.37408 1.598 8.04208 1.598 8.48558C1.598 8.94958 2.2725 9.67908 3.7535 10.1856C5.13002 10.5986 6.5633 10.7908 8 10.7551C9.4082 10.7803 10.812 10.5897 12.1625 10.1901C13.7 9.68058 14.4 8.95008 14.4 8.48708C14.3747 8.32822 14.3167 8.17633 14.2298 8.04097C14.1429 7.90561 14.0289 7.78971 13.895 7.70058C13.4208 7.33421 12.8858 7.05426 12.3145 6.87358C10.9189 6.43578 9.46247 6.22344 8 6.24458Z" fill="#00D8FF"/>
<path d="M5.1598 14.7215C4.92656 14.7268 4.69607 14.6702 4.49181 14.5575C3.77581 14.1445 3.52781 12.9535 3.82831 11.371C4.16001 9.85667 4.73406 8.40583 5.52831 7.07451C6.27384 5.73917 7.22805 4.5316 8.3548 3.49751C8.85154 3.04506 9.42436 2.684 10.0468 2.43101C10.2721 2.32578 10.5177 2.27124 10.7663 2.27124C11.0149 2.27124 11.2605 2.32578 11.4858 2.43101C12.2303 2.86001 12.4768 4.17401 12.1293 5.86051C11.7878 7.2928 11.2286 8.66425 10.4713 9.92701C9.75207 11.2466 8.8279 12.4437 7.7333 13.4735C7.2187 13.9439 6.62147 14.315 5.97181 14.568C5.71178 14.6648 5.43721 14.7167 5.1598 14.7215ZM6.04631 7.37151C5.28875 8.64637 4.73856 10.0335 4.41631 11.481C4.13981 12.9385 4.40531 13.815 4.79131 14.038C5.19131 14.2695 6.1623 14.05 7.3413 13.02C8.38637 12.0335 9.26849 10.8876 9.9548 9.62501C10.6803 8.41777 11.2167 7.10658 11.5453 5.73701C11.8723 4.14951 11.5898 3.17751 11.1888 2.94651C11.0385 2.88901 10.8779 2.86328 10.7171 2.87094C10.5564 2.8786 10.399 2.91948 10.2548 2.99101C9.70067 3.21974 9.19121 3.54437 8.7498 3.95001C7.67337 4.94061 6.76191 6.09665 6.04981 7.37451L6.04631 7.37151Z" fill="#00D8FF"/>
<path d="M10.8388 14.728C10.1613 14.728 9.30083 14.318 8.40483 13.5475C7.25846 12.5039 6.28814 11.282 5.53133 9.92899C4.74688 8.61608 4.17736 7.1862 3.84433 5.69349C3.70024 5.0367 3.67349 4.3596 3.76533 3.69349C3.78692 3.44647 3.86229 3.20716 3.98615 2.99235C4.11001 2.77754 4.27936 2.59243 4.48233 2.44999C5.22583 2.01949 6.48733 2.46199 7.77483 3.60499C8.84513 4.61608 9.75402 5.78534 10.4698 7.07199C11.2539 8.35422 11.8294 9.7528 12.1748 11.2155C12.3254 11.8963 12.3486 12.5992 12.2433 13.2885C12.2184 13.5427 12.1387 13.7885 12.0097 14.0091C11.8808 14.2296 11.7057 14.4196 11.4963 14.566C11.2953 14.6771 11.0685 14.733 10.8388 14.728ZM6.04883 9.62799C6.77491 10.921 7.70179 12.0904 8.79483 13.0925C9.91933 14.06 10.8113 14.268 11.1948 14.0425C11.5948 13.81 11.8898 12.861 11.5858 11.3255C11.2529 9.92893 10.7009 8.5939 9.95033 7.36999C9.26725 6.13855 8.3997 5.01892 7.37783 4.04999C6.16583 2.97399 5.18283 2.73349 4.78233 2.96549C4.65757 3.06699 4.55518 3.19323 4.48161 3.33625C4.40803 3.47926 4.36487 3.63597 4.35483 3.79649C4.2754 4.39054 4.30129 4.99393 4.43133 5.57899C4.75177 7.00647 5.29797 8.37366 6.04933 9.62899L6.04883 9.62799Z" fill="#00D8FF"/>
</svg>
