<svg width="12" height="14" viewBox="0 0 12 14" fill="none" xmlns="http://www.w3.org/2000/svg">
<path d="M11.152 1.57625L3.01137 0.138751C2.78316 0.0991575 2.54857 0.151661 2.35901 0.284751C2.16945 0.417842 2.04039 0.620661 2.00012 0.848751L0.140745 11.4113C0.120779 11.5244 0.123308 11.6404 0.148186 11.7527C0.173065 11.8649 0.219805 11.9711 0.285738 12.0652C0.351671 12.1593 0.435504 12.2396 0.53245 12.3013C0.629395 12.363 0.737553 12.4051 0.850745 12.425L8.99137 13.8625C9.0421 13.8717 9.09356 13.8763 9.14512 13.8763C9.34996 13.8746 9.54773 13.8011 9.70397 13.6686C9.86021 13.5362 9.96501 13.3531 10.0001 13.1513L11.8595 2.58875C11.8995 2.36072 11.8475 2.12612 11.7149 1.93635C11.5823 1.74657 11.3799 1.61709 11.152 1.57625ZM11.1251 2.46L9.26575 13.0225C9.26298 13.0388 9.25703 13.0543 9.24824 13.0682C9.23944 13.0822 9.22797 13.0943 9.21449 13.1038C9.1874 13.1227 9.15392 13.1301 9.12137 13.1244L0.978245 11.6875C0.961652 11.6849 0.945759 11.6789 0.931515 11.67C0.917271 11.6611 0.904968 11.6494 0.895342 11.6357C0.885716 11.6219 0.878964 11.6063 0.87549 11.5899C0.872015 11.5735 0.871889 11.5565 0.87512 11.54L2.73449 0.977501C2.73726 0.961247 2.74321 0.9457 2.752 0.931756C2.7608 0.917811 2.77227 0.905745 2.78574 0.896251C2.81357 0.876845 2.84794 0.869208 2.88137 0.875001L11.022 2.3125C11.0386 2.31513 11.0545 2.32107 11.0687 2.32998C11.083 2.33888 11.0953 2.35057 11.1049 2.36434C11.1145 2.37811 11.1213 2.39367 11.1248 2.41011C11.1282 2.42655 11.1284 2.44351 11.1251 2.46ZM9.632 3.71938C9.61725 3.80659 9.57216 3.88578 9.50469 3.94296C9.43721 4.00015 9.35169 4.03164 9.26325 4.03188C9.24125 4.03193 9.21929 4.03005 9.19762 4.02625L4.01012 3.11C3.96034 3.10287 3.91251 3.0858 3.86946 3.05981C3.82642 3.03382 3.78904 2.99944 3.75955 2.95871C3.73006 2.91799 3.70906 2.87174 3.6978 2.82273C3.68655 2.77373 3.68526 2.72296 3.69402 2.67344C3.70279 2.62393 3.72142 2.57668 3.74881 2.53451C3.7762 2.49234 3.81179 2.45611 3.85347 2.42798C3.89515 2.39985 3.94206 2.38038 3.99141 2.37074C4.04076 2.3611 4.09155 2.36149 4.14074 2.37188L9.32825 3.2875C9.42559 3.3049 9.51212 3.36004 9.56901 3.44092C9.6259 3.5218 9.64853 3.62188 9.632 3.71938ZM9.28512 5.6875C9.27038 5.77471 9.22529 5.8539 9.15781 5.91109C9.09033 5.96827 9.00482 5.99976 8.91637 6C8.89539 5.99983 8.87447 5.99774 8.85387 5.99375L3.66637 5.07813C3.56841 5.0608 3.48133 5.00527 3.42431 4.92376C3.36729 4.84224 3.34499 4.7414 3.36231 4.64344C3.37963 4.54547 3.43516 4.4584 3.51668 4.40138C3.5982 4.34436 3.69903 4.32205 3.79699 4.33938L8.9845 5.25563C9.08126 5.27374 9.16703 5.32918 9.22327 5.40998C9.27952 5.49078 9.30173 5.59046 9.28512 5.6875ZM6.34762 7.19938C6.3322 7.28612 6.28673 7.36466 6.21919 7.42123C6.15165 7.47781 6.06635 7.50879 5.97824 7.50875C5.95625 7.50868 5.9343 7.5068 5.91262 7.50313L3.31949 7.045C3.26972 7.03787 3.22189 7.0208 3.17884 6.99481C3.13579 6.96882 3.09841 6.93444 3.06892 6.89371C3.03943 6.85299 3.01843 6.80674 3.00718 6.75773C2.99592 6.70873 2.99464 6.65796 3.0034 6.60844C3.01216 6.55893 3.03079 6.51168 3.05818 6.46951C3.08558 6.42734 3.12117 6.39111 3.16285 6.36298C3.20452 6.33485 3.25143 6.31538 3.30078 6.30574C3.35013 6.2961 3.40092 6.29649 3.45012 6.30688L6.04324 6.76438C6.09184 6.77311 6.13823 6.79135 6.17975 6.81805C6.22128 6.84476 6.25712 6.8794 6.28523 6.91999C6.31333 6.96058 6.33315 7.00632 6.34353 7.05458C6.35392 7.10285 6.35467 7.15269 6.34574 7.20125L6.34762 7.19938Z" fill="white"/>
</svg>
