<svg width="16" height="17" viewBox="0 0 16 17" fill="none" xmlns="http://www.w3.org/2000/svg">
<path d="M12.25 0.5H3.75C1.67893 0.5 0 2.17893 0 4.25V12.75C0 14.8211 1.67893 16.5 3.75 16.5H12.25C14.3211 16.5 16 14.8211 16 12.75V4.25C16 2.17893 14.3211 0.5 12.25 0.5Z" fill="#F4F2ED"/>
<mask id="mask0_2559_547" style="mask-type:luminance" maskUnits="userSpaceOnUse" x="2" y="2" width="12" height="13">
<path d="M2.375 2.875H13.625V14.125H2.375V2.875Z" fill="white"/>
</mask>
<g mask="url(#mask0_2559_547)">
<path fill-rule="evenodd" clip-rule="evenodd" d="M12.7376 11.638C12.1258 11.621 11.6511 11.6837 11.2533 11.8511C11.1387 11.8971 10.9549 11.8971 10.9398 12.0413C11.001 12.1018 11.0084 12.2008 11.0621 12.2846C11.1538 12.4368 11.3146 12.6418 11.4599 12.7482L11.9495 13.0981C12.2479 13.2804 12.5845 13.3869 12.8752 13.5694C13.0436 13.6759 13.2118 13.8128 13.3802 13.927C13.466 13.9878 13.5179 14.0869 13.6251 14.1247V14.1017C13.5716 14.0335 13.5561 13.9347 13.5028 13.8583L13.273 13.6379C13.0513 13.3414 12.7757 13.0827 12.4773 12.87C12.2325 12.7027 11.6971 12.4746 11.5976 12.1934L11.5825 12.1764C11.7506 12.1594 11.9495 12.1002 12.1103 12.0546C12.3706 11.9864 12.6076 12.0014 12.8752 11.933L13.2427 11.8265V11.7583C13.105 11.6215 13.0055 11.4389 12.8603 11.3098C12.4701 10.9753 12.0414 10.6482 11.5976 10.3745C11.3605 10.2225 11.0543 10.1234 10.8019 9.99445C10.7098 9.94876 10.557 9.92595 10.5035 9.84995C10.3655 9.68295 10.2891 9.4622 10.1897 9.26439L9.5624 7.94139C9.42471 7.64482 9.34034 7.34826 9.17227 7.07457C8.38409 5.78189 7.52702 4.99882 6.21102 4.2307C5.92809 4.07101 5.59146 4.00232 5.23352 3.91882L4.65977 3.8882C4.53715 3.83501 4.41483 3.69045 4.30771 3.62195C3.87158 3.3482 2.74683 2.7552 2.42521 3.53676C2.21865 4.03095 2.7314 4.51751 2.90546 4.76857C3.03577 4.94345 3.20384 5.14107 3.2959 5.33882C3.34734 5.46801 3.36452 5.60501 3.41821 5.74189C3.54046 6.07639 3.65533 6.44914 3.81602 6.76101C3.90177 6.9207 3.99183 7.0882 4.09896 7.23257C4.16021 7.31776 4.2674 7.35426 4.29021 7.49107C4.18302 7.64326 4.17565 7.87114 4.1144 8.06151C3.83884 8.92076 3.94602 9.98526 4.33615 10.6179C4.45877 10.8079 4.74771 11.2263 5.13977 11.0664C5.48409 10.9296 5.40727 10.4962 5.50671 10.1159C5.52984 10.0248 5.51446 9.96395 5.56021 9.90295V9.92001L5.87402 10.5511C6.11121 10.9236 6.52452 11.3115 6.86865 11.5702C7.05215 11.7071 7.19759 11.9429 7.42702 12.0264V12.0034H7.41196C7.36596 11.9353 7.29702 11.9046 7.23584 11.8514C7.09815 11.7146 6.94515 11.5472 6.83796 11.3952C6.51677 10.9694 6.23383 10.4979 5.98121 10.0113C5.85865 9.77564 5.75146 9.51707 5.65233 9.28139C5.60602 9.19007 5.60602 9.05301 5.52971 9.0077C5.41477 9.1747 5.24677 9.31957 5.16221 9.52476C5.01677 9.85164 5.00171 10.2547 4.94821 10.6729C4.91734 10.6806 4.93102 10.6729 4.91734 10.6899C4.67277 10.6293 4.5884 10.3781 4.49671 10.1654C4.26721 9.62551 4.22877 8.7587 4.42771 8.13514C4.48121 7.97545 4.71102 7.47357 4.61927 7.32151C4.57302 7.17701 4.42034 7.09351 4.33596 6.97932C4.23652 6.83482 4.12971 6.65245 4.06077 6.49276C3.87727 6.0667 3.78552 5.59545 3.5864 5.16964C3.49434 4.97189 3.33384 4.76651 3.20365 4.5842C3.05821 4.37882 2.8979 4.23426 2.78302 3.99107C2.74477 3.90589 2.69127 3.77057 2.75246 3.6792C2.76758 3.61839 2.7984 3.59401 2.85934 3.58039C2.95871 3.49514 3.24209 3.6032 3.34152 3.64851C3.62446 3.7627 3.86165 3.86907 4.09884 4.02857C4.20602 4.10457 4.3209 4.24914 4.45859 4.28732H4.61946C4.86434 4.34045 5.13959 4.30432 5.36884 4.37251C5.77446 4.50201 6.14158 4.69189 6.47083 4.89739C7.47302 5.52851 8.29959 6.42576 8.8579 7.49807C8.94965 7.67295 8.9879 7.83264 9.07227 8.01514C9.23315 8.38789 9.43209 8.76795 9.5924 9.13314C9.75327 9.49051 9.90621 9.85576 10.1357 10.1523C10.2506 10.3119 10.7095 10.3954 10.916 10.4791C11.0691 10.5473 11.3061 10.6087 11.4441 10.6922C11.7041 10.8519 11.9643 11.0344 12.209 11.2093C12.3312 11.3003 12.714 11.4904 12.7368 11.6421L12.7376 11.638ZM4.93496 5.03032C4.82928 5.02942 4.72393 5.04219 4.62152 5.06832V5.08539H4.63658C4.69783 5.20707 4.80502 5.29076 4.88146 5.39726L5.05759 5.76226L5.07271 5.74526C5.17984 5.66926 5.23352 5.54757 5.23352 5.36526C5.18759 5.31207 5.18002 5.2587 5.14177 5.20551C5.09583 5.12951 4.9964 5.09132 4.93496 5.0307V5.03032Z" fill="#00678C"/>
</g>
</svg>
