<svg width="1250" height="442" viewBox="0 0 1250 442" fill="none" xmlns="http://www.w3.org/2000/svg">
<path d="M884.595 109.628L913.145 138.178C920.101 145.134 931.305 145.208 938.17 138.344L966.344 110.17C973.208 103.305 973.134 92.1011 966.178 85.1448L937.628 56.5954C930.672 49.6392 919.468 49.565 912.604 56.4297L884.43 84.6035C877.565 91.4682 877.639 102.672 884.595 109.628Z" fill="#F0DB4F"/>
<path d="M955.928 92.3247L949.36 90.6684C949.954 88.4867 950.407 86.5904 948.676 84.8592C947.016 83.1997 945.33 82.794 942.838 85.2857L925.893 102.231L920.842 97.1807L937.858 80.165C943.02 75.0032 948.436 75.7197 952.909 80.1931C956.949 84.2331 957.229 88.6429 955.928 92.3253M937.536 75.0009L931.075 73.2383C931.737 70.4112 931.611 67.7228 929.122 65.234C927.03 63.1413 924.663 62.8395 923.239 64.2635C921.53 65.9722 922.296 67.9483 923.608 71.2535L924.336 73.05C926.449 78.2241 926.944 82.5636 922.886 86.6219C919.148 90.3599 913.413 90.3219 908.904 85.8126C905.694 82.602 904.489 79.1895 905.713 74.6469L912.137 76.087C911.472 78.4836 911.804 80.0262 913.247 81.4692C914.727 82.9484 916.59 82.9607 917.8 81.7505C919.295 80.2554 918.963 78.7121 917.724 75.622L916.996 73.8257C914.519 67.7173 913.952 63.4494 918.117 59.2845C922.603 54.7986 928.631 55.9137 933.428 60.7115C938.118 65.401 938.941 70.6383 937.536 75.0009Z" fill="#323330"/>
<path d="M387.595 380.755L416.145 409.304C423.101 416.261 434.305 416.335 441.17 409.47L469.344 381.296C476.208 374.432 476.134 363.228 469.178 356.271L440.628 327.722C433.672 320.766 422.468 320.692 415.604 327.556L387.43 355.73C380.565 362.595 380.639 373.799 387.595 380.755Z" fill="#F4F2ED" fill-opacity="0.5"/>
<mask id="mask0_2549_2943" style="mask-type:luminance" maskUnits="userSpaceOnUse" x="393" y="333" width="71" height="71">
<path d="M421.735 403.294L393.74 375.299L435.172 333.867L463.167 361.862L421.735 403.294Z" fill="white"/>
</mask>
<g mask="url(#mask0_2549_2943)">
<path d="M456.167 354.862C452.304 350.999 446.076 350.958 442.264 354.77L435.359 361.675L442.356 368.672C446.219 372.535 452.447 372.576 456.259 368.765C460.071 364.953 460.029 358.724 456.167 354.862Z" fill="#0ACF83" fill-opacity="0.5"/>
<path d="M442.448 382.575C438.636 386.387 432.408 386.346 428.545 382.483L421.548 375.486L435.359 361.675L442.356 368.673C446.219 372.535 446.26 378.764 442.448 382.575Z" fill="#A259FF"/>
<path d="M428.638 396.386C424.826 400.198 418.597 400.156 414.735 396.294L407.738 389.296L421.548 375.486L428.546 382.483C432.408 386.346 432.449 392.574 428.638 396.386Z" fill="#F24E1E"/>
<path d="M407.737 389.297L400.74 382.299C396.877 378.437 396.836 372.208 400.648 368.396C404.459 364.585 410.688 364.626 414.551 368.488L421.548 375.486L407.737 389.297Z" fill="#FF7262"/>
<path d="M414.459 354.586C418.27 350.774 424.499 350.815 428.362 354.678C432.224 358.54 432.265 364.769 428.454 368.58C424.642 372.392 418.414 372.351 414.551 368.488C410.688 364.626 410.647 358.397 414.459 354.586Z" fill="#1ABCFE" fill-opacity="0.5"/>
</g>
<path d="M874.595 381.755L903.145 410.304C910.101 417.261 921.305 417.335 928.17 410.47L956.344 382.296C963.208 375.432 963.134 364.228 956.178 357.271L927.628 328.722C920.672 321.766 909.468 321.692 902.604 328.556L874.43 356.73C867.565 363.595 867.639 374.799 874.595 381.755Z" fill="#F4F2ED" fill-opacity="0.5"/>
<path d="M905.775 337.14C906.615 337.523 907.289 338.198 907.671 339.038C908.053 339.878 908.115 340.825 907.846 341.699C906.938 346.412 906.355 351.197 905.633 355.957L905.357 357.985C910.941 357.21 916.397 356.562 921.759 355.589C922.591 355.329 923.494 355.381 924.298 355.736C925.102 356.091 925.754 356.725 926.132 357.519L905.165 360.442L902.764 379.627C901.945 379.238 901.281 378.58 900.884 377.764C900.488 376.948 900.384 376.024 900.589 375.148C901.451 370.389 901.975 365.545 902.673 360.553C897.691 361.215 892.86 361.775 888.076 362.566C887.252 362.816 886.36 362.753 885.57 362.389C884.781 362.024 884.15 361.384 883.796 360.59L891.315 359.585C894.674 359.143 898.022 358.667 901.394 358.33C901.624 358.344 901.854 358.309 902.069 358.229C902.284 358.148 902.479 358.022 902.641 357.86C902.803 357.698 902.928 357.503 903.009 357.289C903.09 357.074 903.124 356.844 903.11 356.613C903.972 350.172 904.868 343.743 905.775 337.14ZM935.654 391.231C934.257 392.137 932.85 393.241 931.337 394.077C922.233 399.142 911.056 393.862 909.783 383.813C909.037 377.929 911.848 373.46 916.112 369.523L934.788 388.198C942.417 381.176 941.483 371.396 932.373 366.802C930.87 366.083 929.216 365.747 927.56 365.825C925.905 365.903 924.3 366.393 922.892 367.249C921.378 368.039 920.599 367.651 919.824 366.209C921.409 364.989 923.254 364.148 925.222 363.75C927.189 363.351 929.227 363.405 931.183 363.907C934.309 364.841 937.073 366.737 939.079 369.322C941.085 371.907 942.23 375.05 942.351 378.3C942.169 381.819 940.839 385.165 938.565 387.829C938.173 388.221 937.933 388.764 937.647 389.215C936.986 389.89 936.322 390.562 935.654 391.231ZM933.186 389.753L916.297 372.864C911.092 378.279 910.722 385.442 915.216 390.005C920.189 395.117 927.482 395.037 933.175 389.788L933.186 389.753Z" fill="#0F0F0F" fill-opacity="0.5"/>
<path d="M715.935 151.21C713.647 148.922 709.912 148.946 707.594 151.265C705.275 153.584 705.25 157.319 707.538 159.607C709.827 161.895 713.561 161.87 715.88 159.552C718.199 157.233 718.224 153.498 715.935 151.21Z" fill="#00D8FF" fill-opacity="0.5"/>
<path d="M721.363 145.782C726.464 150.64 730.751 156.288 734.064 162.514C735.559 165.425 736.499 168.595 736.836 171.863C737.024 173.051 736.952 174.27 736.624 175.435C736.296 176.599 735.721 177.683 734.938 178.61C732.162 181.386 726.432 181.097 719.611 177.836C713.137 174.515 707.257 170.163 702.196 164.949C697.056 159.951 692.759 154.152 689.467 147.773C688.032 144.966 687.108 141.92 686.738 138.776C686.54 137.623 686.599 136.437 686.909 135.301C687.22 134.166 687.775 133.11 688.534 132.206C691.42 129.321 697.708 129.762 704.944 133.364C711.031 136.631 716.568 140.819 721.363 145.782ZM704.204 162.94C709.055 167.921 714.675 172.088 720.857 175.287C727.138 178.287 731.462 178.123 732.951 176.633C734.51 175.075 734.724 170.389 731.517 163.779C728.341 157.829 724.236 152.433 719.354 147.791C714.771 143.038 709.478 139.026 703.66 135.891C696.852 132.507 692.078 132.64 690.523 134.195C690.074 134.813 689.755 135.515 689.589 136.257C689.422 137 689.411 137.767 689.555 138.511C689.896 141.313 690.73 144.026 692.016 146.527C695.172 152.623 699.286 158.164 704.204 162.94Z" fill="#00D8FF" fill-opacity="0.5"/>
<path d="M742.09 143.882C742.881 144.637 743.455 145.591 743.754 146.647C744.74 150.407 741.561 155.229 735.25 159.548C729.064 163.535 722.289 166.506 715.184 168.345C708.228 170.358 701.01 171.252 693.802 170.99C690.635 170.863 687.524 170.177 684.611 168.964C683.511 168.571 682.514 167.94 681.69 167.116C680.866 166.292 680.235 165.295 679.842 164.194C678.815 160.286 682.411 155.055 689.227 150.543C695.17 146.864 701.63 144.111 708.381 142.38C715.198 140.332 722.281 139.374 729.368 139.543C732.654 139.669 735.88 140.402 738.883 141.706C740.07 142.243 741.155 142.978 742.09 143.882ZM714.465 165.63C721.258 163.859 727.741 161.024 733.671 157.23C739.482 153.251 741.546 149.427 741.016 147.399C740.468 145.295 736.512 142.814 729.145 142.366C722.367 142.215 715.595 143.14 709.079 145.106C702.62 146.756 696.438 149.382 690.748 152.893C684.332 157.141 682.004 161.342 682.557 163.447C682.862 164.139 683.308 164.757 683.867 165.265C684.425 165.772 685.085 166.156 685.803 166.394C688.408 167.462 691.187 168.06 694.012 168.161C700.907 168.402 707.811 167.54 714.463 165.608L714.465 165.63Z" fill="#00D8FF" fill-opacity="0.5"/>
<path d="M723.29 125.038C725.536 127.284 727.011 131.513 727.393 137.071C727.687 144.376 726.8 151.696 724.764 158.749C722.954 165.758 720.039 172.449 716.129 178.566C714.401 181.25 712.215 183.613 709.674 185.546C708.772 186.304 707.719 186.858 706.587 187.169C705.455 187.48 704.272 187.54 703.121 187.346C699.21 186.327 696.515 180.66 696.087 172.553C695.935 165.61 696.85 158.67 698.799 151.976C700.507 145.07 703.297 138.465 707.064 132.407C708.852 129.621 711.136 127.184 713.8 125.218C714.737 124.446 715.826 123.885 716.995 123.572C718.163 123.258 719.381 123.201 720.567 123.403C721.606 123.696 722.546 124.26 723.29 125.038ZM722.037 158.044C723.974 151.295 724.829 144.295 724.572 137.306C724.094 130.329 721.836 126.674 719.808 126.16C717.701 125.615 713.536 127.825 709.386 133.99C705.799 139.784 703.145 146.098 701.522 152.697C699.65 159.097 698.765 165.733 698.897 172.374C699.3 180.006 701.751 184.072 703.858 184.62C704.612 184.693 705.375 184.608 706.1 184.371C706.824 184.135 707.493 183.752 708.066 183.246C710.324 181.514 712.265 179.401 713.799 177.005C717.532 171.149 720.313 164.746 722.039 158.039L722.037 158.044Z" fill="#00D8FF" fill-opacity="0.5"/>
<path d="M670.989 61.4186L699.538 89.968C706.495 96.9242 717.773 96.9242 724.729 89.968L753.279 61.4186C760.235 54.4624 760.235 43.1841 753.279 36.2279L724.729 7.67846C717.773 0.722252 706.495 0.722252 699.538 7.67846L670.989 36.2279C664.033 43.1841 664.033 54.4624 670.989 61.4186Z" fill="#242938" fill-opacity="0.5"/>
<path d="M692.528 71.1789C692.626 71.261 692.942 71.5196 693.221 71.7579C699.722 77.1833 708.525 79.5513 717.008 78.1437C721.728 77.3637 726.107 75.5048 729.887 72.6767C731.208 71.6916 731.57 71.3714 733.133 69.8079C734.697 68.2442 735.017 67.8829 736.002 66.5615C742.745 57.5369 743.759 45.3024 738.604 35.2394C737.68 33.4376 736.544 31.7018 735.091 29.8878C734.524 29.1819 731.775 26.4323 731.069 25.8657C727.937 23.3582 724.851 21.6673 721.293 20.5142C720.747 20.3376 720.628 20.3171 720.636 20.4073C720.644 20.4649 720.119 24.0684 719.471 28.4102L718.293 36.3022L716.274 46.735C715.166 52.4723 714.271 57.1757 714.287 57.1922C714.3 57.2126 717.082 54.4628 720.468 51.0934C726.394 45.1918 726.636 44.9578 726.85 44.8923C727.157 44.7978 727.322 44.7978 727.585 44.8799C727.781 44.9456 727.909 45.0482 728.528 45.6679L729.238 46.3779L729.308 46.6858C729.352 46.8761 729.344 47.0746 729.284 47.2604L729.185 47.5312L720.948 55.7513L712.703 63.9719L712.416 64.0048C712.264 64.0252 712.014 63.9964 711.862 63.9513C711.612 63.8652 711.538 63.8077 710.828 63.0978C709.99 62.2604 709.884 62.0883 709.904 61.6325C709.908 61.5053 711.062 55.7967 712.469 48.9387C713.893 41.9967 715.315 35.054 716.733 28.1109L718.445 19.7507L718.166 19.6932C715.707 19.1722 712.752 18.975 710.068 19.164C704.364 19.558 698.934 21.5646 694.395 24.9547C693.074 25.9396 692.712 26.2598 691.149 27.8235C689.585 29.3872 689.265 29.7482 688.28 31.0697C681.537 40.0945 680.523 52.3288 685.678 62.3918C686.585 64.169 687.713 65.8967 689.134 67.6779C689.486 68.113 692.154 70.8708 692.528 71.1785M696.632 49.8867C696.533 49.5914 696.562 49.2425 696.701 48.988C696.775 48.8484 699.049 46.5584 704.2 41.4243L711.591 34.0575L710.897 37.3531L710.208 40.6527L704.844 46.0166C701.376 49.4845 699.41 51.4177 699.291 51.4876C698.996 51.6515 698.672 51.6885 698.368 51.5982C698.113 51.5161 698.043 51.4628 697.399 50.8186C696.792 50.2111 696.693 50.096 696.632 49.8867Z" fill="white" fill-opacity="0.5"/>
<path d="M558.595 -9.53784L587.145 19.0116C594.101 25.9678 605.379 25.9678 612.336 19.0116L640.885 -9.53784C647.841 -16.4941 647.841 -27.7723 640.885 -34.7285L612.336 -63.278C605.379 -70.2342 594.101 -70.2342 587.145 -63.278L558.595 -34.7285C551.639 -27.7723 551.639 -16.4941 558.595 -9.53784Z" fill="#F4F2ED" fill-opacity="0.5"/>
<mask id="mask1_2549_2943" style="mask-type:luminance" maskUnits="userSpaceOnUse" x="561" y="-60" width="77" height="76">
<path d="M599.74 15.6528L561.954 -22.1332L599.74 -59.9192L637.526 -22.1332L599.74 15.6528Z" fill="white"/>
</mask>
<g mask="url(#mask1_2549_2943)">
<path fill-rule="evenodd" clip-rule="evenodd" d="M594.368 -48.5857C596.366 -46.4735 598.171 -45.0897 600.069 -44.3157C600.608 -44.0854 601.226 -43.468 601.761 -43.9015C601.758 -44.3105 602.066 -44.6678 602.168 -45.1298C602.371 -45.9489 602.519 -47.1778 602.388 -48.0229L601.919 -50.8426C601.529 -52.4571 600.756 -53.9457 600.393 -55.535C600.185 -56.4582 600.08 -57.4831 599.898 -58.4321C599.814 -58.9244 599.972 -59.4316 599.739 -59.9186L599.662 -59.8414C599.613 -59.4326 599.333 -59.0489 599.255 -58.6133L599.287 -57.1012C599.036 -55.3608 599.092 -53.5659 599.38 -51.8494C599.641 -50.465 600.673 -47.9008 600.063 -46.6221L600.056 -46.5142C599.434 -47.0216 598.567 -47.491 597.874 -47.8779C596.771 -48.5232 596.025 -49.3696 594.897 -50.0386L593.305 -50.9153L593.076 -50.6862C593.079 -49.764 592.8 -48.8169 592.854 -47.8953C593.04 -45.4613 593.382 -42.9227 593.953 -40.5128C594.239 -39.2058 594.935 -37.8449 595.349 -36.5637C595.505 -36.101 595.942 -35.5112 595.866 -35.0762C595.769 -34.0516 595.284 -33.0538 594.953 -32.0554L592.617 -25.5048C592.083 -24.0462 591.37 -22.7668 591.016 -21.283C589.321 -14.2939 589.57 -8.7851 591.41 -1.78503C591.824 -0.298361 592.724 1.06298 593.646 2.54567L595.47 4.57561C595.703 5.16613 595.628 6.0625 595.758 6.65238C596.303 9.03668 598.089 14.8062 601.795 13.2614C604.148 12.2953 604.06 8.93885 604.319 7.51096C604.469 6.48591 604.568 5.25765 604.923 4.28424C605.184 3.67757 605.587 3.15969 605.866 2.51964C606.579 0.985523 607.445 -0.652291 607.953 -2.23951C608.201 -3.06388 608.461 -3.92897 608.586 -4.7737C608.667 -5.26554 608.429 -5.74816 608.812 -6.2843C609.683 -6.43544 610.474 -7.17605 611.319 -7.60975C615.13 -9.57021 618.346 -13.5056 619.16 -16.9408C619.386 -17.9908 619.821 -20.3665 617.968 -21.1466C616.351 -21.8433 615.154 -20.1297 613.543 -19.1865C613.159 -18.9581 613.006 -18.702 612.647 -18.6508L612.705 -18.7081L613.77 -21.8817C614.225 -23.9297 614.14 -26.6207 613.853 -28.6454C613.696 -29.7215 614 -31.0022 613.51 -32.0533L613.432 -31.9761L613.483 -31.9255C613.408 -31.5419 613.537 -31.2073 613.564 -30.8232C613.567 -29.9012 613.518 -28.8251 613.368 -27.9546C613.017 -25.4458 612.383 -22.9116 611.597 -20.4289C611.218 -19.2256 610.709 -17.9971 610.25 -16.8726C610.099 -16.4103 609.639 -15.95 609.743 -15.5415C610.69 -15.7163 611.741 -15.6386 612.714 -16.0438C614.3 -16.6532 615.705 -17.9564 617.289 -19.1815C617.419 -19.1034 617.347 -19.1238 617.45 -19.1349C618.068 -18.1099 617.507 -16.9826 617.101 -15.9602C616.059 -13.3761 613.276 -10.3356 610.514 -8.90938C609.798 -8.55272 607.34 -7.63893 607.137 -6.82002C606.807 -6.17934 607.04 -5.38604 606.94 -4.71912C606.788 -3.89979 606.535 -2.92848 606.23 -2.16058C605.415 -0.113211 604.14 1.77777 603.379 3.87678C603.024 4.85019 602.873 6.07908 602.698 7.12869C602.497 8.30698 602.55 9.33099 602.119 10.5336C601.961 10.9482 601.686 11.5824 601.174 11.6838C600.919 11.8372 600.734 11.8156 600.483 11.6567C599.863 11.6093 599.274 10.2945 599.092 9.80835C598.526 8.4745 598.086 7.32056 597.825 5.98818C597.721 5.3729 597.82 4.50151 597.486 3.91079L596.946 3.37045C596.302 2.36954 595.256 1.56638 594.715 0.567357C593.787 -1.23 593.192 -3.10082 592.776 -4.89692C591.53 -10.3828 591.768 -16.1727 593.494 -21.6496C593.773 -22.5451 594.181 -23.2099 594.511 -24.1063C595.222 -25.8986 595.831 -27.8433 596.519 -29.6083C597.179 -31.349 597.892 -33.0895 598.117 -34.8562C598.267 -35.7784 597.007 -37.6001 596.594 -38.5748C596.309 -39.3181 595.719 -40.3203 595.536 -41.0644C595.199 -42.4739 594.938 -43.9607 594.704 -45.3699C594.599 -46.0862 593.952 -48.0108 594.385 -48.5967L594.368 -48.5857ZM598.382 -0.184794C598.734 0.173209 599.13 0.484167 599.562 0.740334L599.619 0.683026L599.569 0.632435C599.772 0.0179927 599.693 -0.623111 599.794 -1.23755L600.428 -3.05506L600.32 -3.04877C599.705 -3.15331 599.116 -2.92491 598.504 -2.31257C598.479 -1.97963 598.326 -1.77496 598.275 -1.46784C598.174 -1.05828 598.38 -0.596031 598.383 -0.186053L598.382 -0.184794Z" fill="#00678C" fill-opacity="0.5"/>
</g>
<path d="M1172.6 55.4622L1201.14 84.0116C1208.1 90.9678 1219.38 90.9678 1226.34 84.0116L1254.89 55.4622C1261.84 48.5059 1261.84 37.2277 1254.89 30.2715L1226.34 1.72204C1219.38 -5.23417 1208.1 -5.23417 1201.14 1.72204L1172.6 30.2715C1165.64 37.2277 1165.64 48.5059 1172.6 55.4622Z" fill="#F03C2E" fill-opacity="0.5"/>
<mask id="mask2_2549_2943" style="mask-type:luminance" maskUnits="userSpaceOnUse" x="1171" y="0" width="85" height="85">
<path d="M1213.74 84.8513L1171.76 42.8669L1213.74 0.88239L1255.72 42.8669L1213.74 84.8513Z" fill="white"/>
</mask>
<g mask="url(#mask2_2549_2943)">
<path d="M1191.67 24.5367L1191.67 61.1971C1191.67 61.9534 1191.89 62.6928 1192.31 63.3216C1192.73 63.9505 1193.33 64.4405 1194.03 64.7297C1194.49 64.9215 1194.99 65.0202 1195.49 65.0202L1203.1 65.0202L1203.1 55.3638C1201.59 54.6343 1200.57 53.0796 1200.57 51.29C1200.57 50.4374 1200.81 49.6021 1201.26 48.8797C1201.72 48.1572 1202.36 47.5767 1203.13 47.2045L1203.13 37.897C1201.62 37.1595 1200.57 35.6103 1200.57 33.8102C1200.57 32.9101 1200.84 32.0301 1201.34 31.2817C1201.84 30.5333 1202.55 29.9502 1203.38 29.6061C1204.5 29.1448 1205.75 29.1451 1206.86 29.6071C1207.98 30.0691 1208.86 30.9549 1209.33 32.0698C1209.56 32.6221 1209.67 33.2138 1209.67 33.8115C1209.67 35.7008 1208.52 37.325 1206.87 38.0112L1206.87 46.6915L1218.3 35.2702C1218.14 34.7993 1218.05 34.3059 1218.05 33.8088C1218.05 32.602 1218.53 31.4447 1219.38 30.5914C1220.24 29.7381 1221.39 29.2587 1222.6 29.2587C1223.81 29.2587 1224.97 29.7381 1225.82 30.5914C1226.67 31.4447 1227.15 32.602 1227.15 33.8088C1227.15 34.7089 1226.89 35.5889 1226.39 36.3374C1225.89 37.0859 1225.18 37.6692 1224.34 38.0135C1223.79 38.2421 1223.2 38.3594 1222.6 38.3588C1221.98 38.3576 1221.4 38.2474 1220.85 38.0072L1209.32 49.5347C1209.55 50.0904 1209.67 50.6873 1209.67 51.29C1209.67 52.193 1209.4 53.0757 1208.9 53.8256C1208.4 54.5754 1207.68 55.1585 1206.85 55.5005L1206.85 65.0225L1231.97 65.0358C1232.73 65.036 1233.47 64.8119 1234.1 64.3917C1234.73 63.9715 1235.22 63.3741 1235.51 62.6752C1235.7 62.211 1235.8 61.7135 1235.8 61.2112L1235.8 24.551C1235.8 24.0489 1235.7 23.5518 1235.5 23.0878C1235.12 22.1513 1234.37 21.407 1233.44 21.0184C1232.97 20.8266 1232.47 20.7279 1231.97 20.7279L1195.51 20.6989C1195.01 20.6987 1194.51 20.7975 1194.04 20.9896C1193.58 21.1817 1193.16 21.4633 1192.8 21.8184C1192.45 22.1737 1192.17 22.5954 1191.97 23.0595C1191.78 23.5237 1191.68 24.0211 1191.68 24.5235" fill="white" fill-opacity="0.5"/>
</g>
<path d="M1127.6 400.462L1156.14 429.012C1163.1 435.968 1174.38 435.968 1181.34 429.012L1209.89 400.462C1216.84 393.506 1216.84 382.228 1209.89 375.271L1181.34 346.722C1174.38 339.766 1163.1 339.766 1156.14 346.722L1127.6 375.271C1120.64 382.228 1120.64 393.506 1127.6 400.462Z" fill="#0277BD" fill-opacity="0.5"/>
<path d="M1179.01 408.774L1185.11 401.468L1170.1 386.463L1163.4 393.168L1179.01 408.774ZM1149.83 406.74L1166.64 423.554L1172.74 416.239L1156.53 400.035L1149.83 406.74ZM1187.79 368.777L1180.81 375.754L1180.85 375.775L1186.3 385.259L1181.43 391.085L1188.16 397.816L1197.75 386.348L1187.83 368.8L1187.79 368.777Z" fill="#EBEBEB"/>
<path d="M1161.87 378.229L1171.35 370.311L1180.84 375.771L1187.82 368.795L1170.26 358.858L1169.03 359.891L1149.8 375.968L1147.84 377.605L1133.05 389.966L1149.85 406.763L1156.56 400.058L1147.11 390.609L1154.58 384.353L1163.42 393.191L1170.13 386.486L1161.87 378.229Z" fill="white" fill-opacity="0.5"/>
<path d="M1055.6 150.628L1084.14 179.178C1091.1 186.134 1102.31 186.208 1109.17 179.343L1137.34 151.17C1144.21 144.305 1144.13 133.101 1137.18 126.145L1108.63 97.5953C1101.67 90.6391 1090.47 90.5649 1083.6 97.4296L1055.43 125.603C1048.57 132.468 1048.64 143.672 1055.6 150.628Z" fill="#242938" fill-opacity="0.5"/>
<mask id="mask3_2549_2943" style="mask-type:luminance" maskUnits="userSpaceOnUse" x="1055" y="97" width="83" height="83">
<path d="M1095.82 179.255L1055.33 138.757L1096.76 97.3249L1137.26 137.823L1095.82 179.255Z" fill="white"/>
</mask>
<g mask="url(#mask3_2549_2943)">
<path d="M1112.59 115.149C1114.97 114.891 1116.4 117.768 1114.74 119.48L1090.46 144.512L1073.66 127.711C1070.61 124.668 1072.39 119.502 1076.63 119.043L1112.59 115.149Z" fill="url(#paint0_linear_2549_2943)"/>
<path d="M1112.59 115.149C1114.97 114.891 1116.4 117.768 1114.74 119.48L1090.46 144.512L1073.66 127.711C1070.61 124.668 1072.39 119.502 1076.63 119.043L1112.59 115.149Z" fill="url(#paint1_linear_2549_2943)" fill-opacity="0.5"/>
<path d="M1079.75 161.658C1077.36 161.917 1075.93 159.039 1077.59 157.327L1102.09 132.505L1118.68 149.096C1121.72 152.139 1119.95 157.305 1115.7 157.765L1079.75 161.658Z" fill="#3ECF8E"/>
</g>
<defs>
<linearGradient id="paint0_linear_2549_2943" x1="1095.93" y1="139.045" x2="1087.37" y2="117.852" gradientUnits="userSpaceOnUse">
<stop stop-color="#249361"/>
<stop offset="1" stop-color="#3ECF8E"/>
</linearGradient>
<linearGradient id="paint1_linear_2549_2943" x1="1093.6" y1="154.61" x2="1099.66" y2="135.216" gradientUnits="userSpaceOnUse">
<stop/>
<stop offset="1" stop-opacity="0"/>
</linearGradient>
</defs>
</svg>
