<svg width="48" height="49" viewBox="0 0 48 49" fill="none" xmlns="http://www.w3.org/2000/svg">
<path d="M24 33.7621C21.6139 33.7594 19.3262 32.8104 17.639 31.1231C15.9517 29.4359 15.0026 27.1482 15 24.7621C15 19.8001 19.038 15.7621 24 15.7621C28.962 15.7621 33 19.8001 33 24.7621C33 29.7241 28.962 33.7621 24 33.7621Z" fill="#ECDFCC" fill-opacity="0.4"/>
<path fill-rule="evenodd" clip-rule="evenodd" d="M24 6.76208C24.2652 6.76208 24.5196 6.86744 24.7071 7.05498C24.8946 7.24251 25 7.49687 25 7.76208V11.7621C25 12.0273 24.8946 12.2817 24.7071 12.4692C24.5196 12.6567 24.2652 12.7621 24 12.7621C23.7348 12.7621 23.4804 12.6567 23.2929 12.4692C23.1054 12.2817 23 12.0273 23 11.7621V7.76208C23 7.49687 23.1054 7.24251 23.2929 7.05498C23.4804 6.86744 23.7348 6.76208 24 6.76208ZM36 24.7621C36 24.4969 36.1054 24.2425 36.2929 24.055C36.4804 23.8674 36.7348 23.7621 37 23.7621H41C41.2652 23.7621 41.5196 23.8674 41.7071 24.055C41.8946 24.2425 42 24.4969 42 24.7621C42 25.0273 41.8946 25.2817 41.7071 25.4692C41.5196 25.6567 41.2652 25.7621 41 25.7621H37C36.7348 25.7621 36.4804 25.6567 36.2929 25.4692C36.1054 25.2817 36 25.0273 36 24.7621ZM6 24.7621C6 24.4969 6.10536 24.2425 6.29289 24.055C6.48043 23.8674 6.73478 23.7621 7 23.7621H11C11.2652 23.7621 11.5196 23.8674 11.7071 24.055C11.8946 24.2425 12 24.4969 12 24.7621C12 25.0273 11.8946 25.2817 11.7071 25.4692C11.5196 25.6567 11.2652 25.7621 11 25.7621H7C6.73478 25.7621 6.48043 25.6567 6.29289 25.4692C6.10536 25.2817 6 25.0273 6 24.7621ZM24 36.7621C24.2652 36.7621 24.5196 36.8674 24.7071 37.055C24.8946 37.2425 25 37.4969 25 37.7621V41.7621C25 42.0273 24.8946 42.2817 24.7071 42.4692C24.5196 42.6567 24.2652 42.7621 24 42.7621C23.7348 42.7621 23.4804 42.6567 23.2929 42.4692C23.1054 42.2817 23 42.0273 23 41.7621V37.7621C23 37.4969 23.1054 37.2425 23.2929 37.055C23.4804 36.8674 23.7348 36.7621 24 36.7621ZM36.708 12.0541C36.8011 12.147 36.875 12.2573 36.9254 12.3788C36.9758 12.5003 37.0018 12.6306 37.0018 12.7621C37.0018 12.8936 36.9758 13.0239 36.9254 13.1454C36.875 13.2668 36.8011 13.3772 36.708 13.4701L33.708 16.4701C33.5202 16.6579 33.2656 16.7633 33 16.7633C32.7344 16.7633 32.4798 16.6579 32.292 16.4701C32.1042 16.2823 31.9987 16.0276 31.9987 15.7621C31.9987 15.4965 32.1042 15.2419 32.292 15.0541L35.292 12.0541C35.3849 11.961 35.4952 11.8871 35.6167 11.8367C35.7382 11.7862 35.8685 11.7603 36 11.7603C36.1315 11.7603 36.2618 11.7862 36.3833 11.8367C36.5048 11.8871 36.6151 11.961 36.708 12.0541ZM15.708 33.0541C15.8011 33.147 15.875 33.2573 15.9254 33.3788C15.9758 33.5003 16.0018 33.6306 16.0018 33.7621C16.0018 33.8936 15.9758 34.0239 15.9254 34.1454C15.875 34.2668 15.8011 34.3772 15.708 34.4701L12.708 37.4701C12.5202 37.6579 12.2656 37.7633 12 37.7633C11.7344 37.7633 11.4798 37.6579 11.292 37.4701C11.1042 37.2823 10.9987 37.0276 10.9987 36.7621C10.9987 36.4965 11.1042 36.2419 11.292 36.0541L14.292 33.0541C14.3849 32.961 14.4952 32.8871 14.6167 32.8367C14.7382 32.7862 14.8685 32.7603 15 32.7603C15.1315 32.7603 15.2618 32.7862 15.3833 32.8367C15.5048 32.8871 15.6151 32.961 15.708 33.0541ZM11.292 12.0541C11.3849 11.961 11.4952 11.8871 11.6167 11.8367C11.7382 11.7862 11.8685 11.7603 12 11.7603C12.1315 11.7603 12.2618 11.7862 12.3833 11.8367C12.5048 11.8871 12.6151 11.961 12.708 12.0541L15.708 15.0541C15.8958 15.2419 16.0013 15.4965 16.0013 15.7621C16.0013 16.0276 15.8958 16.2823 15.708 16.4701C15.5202 16.6579 15.2656 16.7633 15 16.7633C14.7344 16.7633 14.4798 16.6579 14.292 16.4701L11.292 13.4701C11.1989 13.3772 11.125 13.2668 11.0746 13.1454C11.0242 13.0239 10.9982 12.8936 10.9982 12.7621C10.9982 12.6306 11.0242 12.5003 11.0746 12.3788C11.125 12.2573 11.1989 12.147 11.292 12.0541ZM32.292 33.0541C32.3849 32.961 32.4952 32.8871 32.6167 32.8367C32.7382 32.7862 32.8685 32.7603 33 32.7603C33.1315 32.7603 33.2618 32.7862 33.3833 32.8367C33.5048 32.8871 33.6151 32.961 33.708 33.0541L36.708 36.0541C36.801 36.1471 36.8747 36.2574 36.925 36.3789C36.9754 36.5004 37.0013 36.6306 37.0013 36.7621C37.0013 36.8936 36.9754 37.0238 36.925 37.1453C36.8747 37.2667 36.801 37.3771 36.708 37.4701C36.615 37.5631 36.5046 37.6368 36.3832 37.6871C36.2617 37.7374 36.1315 37.7633 36 37.7633C35.8685 37.7633 35.7383 37.7374 35.6168 37.6871C35.4954 37.6368 35.385 37.5631 35.292 37.4701L32.292 34.4701C32.1989 34.3772 32.125 34.2668 32.0746 34.1454C32.0242 34.0239 31.9982 33.8936 31.9982 33.7621C31.9982 33.6306 32.0242 33.5003 32.0746 33.3788C32.125 33.2573 32.1989 33.147 32.292 33.0541Z" fill="#ECDFCC" fill-opacity="0.4"/>
</svg>
