<svg width="20" height="20" viewBox="0 0 20 20" fill="none" xmlns="http://www.w3.org/2000/svg">
<path d="M15 10C15 11.3261 14.4732 12.5979 13.5355 13.5355C12.5979 14.4732 11.3261 15 10 15C8.67392 15 7.40215 14.4732 6.46447 13.5355C5.52678 12.5979 5 11.3261 5 10C5 8.67392 5.52678 7.40215 6.46447 6.46447C7.40215 5.52678 8.67392 5 10 5C11.3261 5 12.5979 5.52678 13.5355 6.46447C14.4732 7.40215 15 8.67392 15 10Z" fill="#021327"/>
<path fill-rule="evenodd" clip-rule="evenodd" d="M10.0003 1.04167C10.1661 1.04167 10.3251 1.10752 10.4423 1.22473C10.5595 1.34194 10.6253 1.50091 10.6253 1.66667V2.50001C10.6253 2.66577 10.5595 2.82474 10.4423 2.94195C10.3251 3.05916 10.1661 3.12501 10.0003 3.12501C9.83457 3.12501 9.67559 3.05916 9.55838 2.94195C9.44117 2.82474 9.37533 2.66577 9.37533 2.50001V1.66667C9.37533 1.50091 9.44117 1.34194 9.55838 1.22473C9.67559 1.10752 9.83457 1.04167 10.0003 1.04167ZM3.66616 3.66584C3.78335 3.5488 3.9422 3.48305 4.10783 3.48305C4.27345 3.48305 4.4323 3.5488 4.54949 3.66584L4.87699 3.9925C4.9909 4.11033 5.05397 4.26817 5.05262 4.43205C5.05128 4.59592 4.98562 4.75271 4.86979 4.86865C4.75397 4.98458 4.59724 5.05039 4.43337 5.05189C4.2695 5.05339 4.11159 4.99047 3.99366 4.87667L3.66616 4.54917C3.54912 4.43198 3.48338 4.27313 3.48338 4.1075C3.48338 3.94188 3.54912 3.78303 3.66616 3.66584ZM16.3345 3.66584C16.4515 3.78303 16.5173 3.94188 16.5173 4.1075C16.5173 4.27313 16.4515 4.43198 16.3345 4.54917L16.007 4.87667C15.8885 4.98707 15.7318 5.04717 15.5699 5.04432C15.408 5.04146 15.2535 4.97587 15.139 4.86136C15.0245 4.74685 14.9589 4.59236 14.956 4.43044C14.9532 4.26852 15.0133 4.11182 15.1237 3.99334L15.4512 3.66584C15.5683 3.5488 15.7272 3.48305 15.8928 3.48305C16.0585 3.48305 16.2173 3.5488 16.3345 3.66584ZM1.04199 10C1.04199 9.83424 1.10784 9.67527 1.22505 9.55806C1.34226 9.44085 1.50123 9.375 1.66699 9.375H2.50033C2.66609 9.375 2.82506 9.44085 2.94227 9.55806C3.05948 9.67527 3.12533 9.83424 3.12533 10C3.12533 10.1658 3.05948 10.3247 2.94227 10.4419C2.82506 10.5592 2.66609 10.625 2.50033 10.625H1.66699C1.50123 10.625 1.34226 10.5592 1.22505 10.4419C1.10784 10.3247 1.04199 10.1658 1.04199 10ZM16.8753 10C16.8753 9.83424 16.9412 9.67527 17.0584 9.55806C17.1756 9.44085 17.3346 9.375 17.5003 9.375H18.3337C18.4994 9.375 18.6584 9.44085 18.7756 9.55806C18.8928 9.67527 18.9587 9.83424 18.9587 10C18.9587 10.1658 18.8928 10.3247 18.7756 10.4419C18.6584 10.5592 18.4994 10.625 18.3337 10.625H17.5003C17.3346 10.625 17.1756 10.5592 17.0584 10.4419C16.9412 10.3247 16.8753 10.1658 16.8753 10ZM15.1237 15.1233C15.2408 15.0063 15.3997 14.9406 15.5653 14.9406C15.731 14.9406 15.8898 15.0063 16.007 15.1233L16.3345 15.4508C16.3959 15.5081 16.4451 15.5771 16.4793 15.6537C16.5135 15.7304 16.5318 15.8131 16.5333 15.8971C16.5348 15.981 16.5194 16.0643 16.4879 16.1422C16.4565 16.22 16.4097 16.2907 16.3504 16.35C16.291 16.4094 16.2203 16.4562 16.1425 16.4876C16.0647 16.519 15.9813 16.5345 15.8974 16.533C15.8135 16.5315 15.7307 16.5131 15.654 16.479C15.5774 16.4448 15.5084 16.3956 15.4512 16.3342L15.1237 16.0067C15.0066 15.8895 14.9409 15.7306 14.9409 15.565C14.9409 15.3994 15.0066 15.2405 15.1237 15.1233ZM4.87699 15.1233C4.99403 15.2405 5.05978 15.3994 5.05978 15.565C5.05978 15.7306 4.99403 15.8895 4.87699 16.0067L4.54949 16.3342C4.49227 16.3956 4.42327 16.4448 4.34661 16.479C4.26994 16.5131 4.18718 16.5315 4.10326 16.533C4.01934 16.5345 3.93598 16.519 3.85816 16.4876C3.78034 16.4562 3.70964 16.4094 3.65029 16.35C3.59094 16.2907 3.54416 16.22 3.51272 16.1422C3.48129 16.0643 3.46585 15.981 3.46733 15.8971C3.46881 15.8131 3.48718 15.7304 3.52134 15.6537C3.5555 15.5771 3.60475 15.5081 3.66616 15.4508L3.99283 15.1233C4.05087 15.0653 4.11978 15.0192 4.19564 14.9878C4.27149 14.9563 4.3528 14.9401 4.43491 14.9401C4.51702 14.9401 4.59832 14.9563 4.67418 14.9878C4.75003 15.0192 4.81895 15.0653 4.87699 15.1233ZM10.0003 16.875C10.1661 16.875 10.3251 16.9409 10.4423 17.0581C10.5595 17.1753 10.6253 17.3342 10.6253 17.5V18.3333C10.6253 18.4991 10.5595 18.6581 10.4423 18.7753C10.3251 18.8925 10.1661 18.9583 10.0003 18.9583C9.83457 18.9583 9.67559 18.8925 9.55838 18.7753C9.44117 18.6581 9.37533 18.4991 9.37533 18.3333V17.5C9.37533 17.3342 9.44117 17.1753 9.55838 17.0581C9.67559 16.9409 9.83457 16.875 10.0003 16.875Z" fill="#021327"/>
</svg>
