<svg width="16" height="17" viewBox="0 0 16 17" fill="none" xmlns="http://www.w3.org/2000/svg">
<path d="M12.25 0.5H3.75C1.67893 0.5 0 2.17893 0 4.25V12.75C0 14.8211 1.67893 16.5 3.75 16.5H12.25C14.3211 16.5 16 14.8211 16 12.75V4.25C16 2.17893 14.3211 0.5 12.25 0.5Z" fill="#242938"/>
<path fill-rule="evenodd" clip-rule="evenodd" d="M5.1875 7.375C5.5625 5.875 6.5 5.125 8 5.125C10.25 5.125 10.5312 6.8125 11.6562 7.09375C12.4062 7.28133 13.0625 7.00008 13.625 6.25C13.25 7.75 12.3125 8.5 10.8125 8.5C8.5625 8.5 8.28125 6.8125 7.15625 6.53125C6.40625 6.34375 5.75 6.625 5.1875 7.375ZM2.375 10.75C2.75 9.25 3.6875 8.5 5.1875 8.5C7.4375 8.5 7.71875 10.1875 8.84375 10.4688C9.59375 10.6563 10.25 10.3751 10.8125 9.625C10.4375 11.125 9.5 11.875 8 11.875C5.75 11.875 5.46875 10.1875 4.34375 9.90625C3.59375 9.71867 2.9375 9.99992 2.375 10.75Z" fill="url(#paint0_linear_2559_560)"/>
<defs>
<linearGradient id="paint0_linear_2559_560" x1="5.40625" y1="5.125" x2="10.2187" y2="12.0937" gradientUnits="userSpaceOnUse">
<stop stop-color="#32B1C1"/>
<stop offset="1" stop-color="#14C6B7"/>
</linearGradient>
</defs>
</svg>
