<svg width="25" height="24" viewBox="0 0 25 24" fill="none" xmlns="http://www.w3.org/2000/svg">
<path d="M23.0567 6C22.2867 6.35 21.4567 6.58 20.5967 6.69C21.4767 6.16 22.1567 5.32 22.4767 4.31C21.6467 4.81 20.7267 5.16 19.7567 5.36C18.9667 4.5 17.8567 4 16.5967 4C14.2467 4 12.3267 5.92 12.3267 8.29C12.3267 8.63 12.3667 8.96 12.4367 9.27C8.87672 9.09 5.70672 7.38 3.59672 4.79C3.22672 5.42 3.01672 6.16 3.01672 6.94C3.01672 8.43 3.76672 9.75 4.92672 10.5C4.21672 10.5 3.55672 10.3 2.97672 10V10.03C2.97672 12.11 4.45672 13.85 6.41672 14.24C5.78756 14.4129 5.12676 14.4369 4.48672 14.31C4.75833 15.1625 5.29026 15.9084 6.00774 16.4429C6.72521 16.9775 7.59217 17.2737 8.48672 17.29C6.97039 18.4905 5.09073 19.1394 3.15672 19.13C2.81672 19.13 2.47672 19.11 2.13672 19.07C4.03672 20.29 6.29672 21 8.71672 21C16.5967 21 20.9267 14.46 20.9267 8.79C20.9267 8.6 20.9267 8.42 20.9167 8.23C21.7567 7.63 22.4767 6.87 23.0567 6Z" fill="#ECDFCC"/>
</svg>
