<svg width="16" height="17" viewBox="0 0 16 17" fill="none" xmlns="http://www.w3.org/2000/svg">
<path d="M1.25 0.5H14.75C15.4404 0.5 16 1.05963 16 1.75V15.25C16 15.9404 15.4404 16.5 14.75 16.5H1.25C0.559625 16.5 0 15.9404 0 15.25V1.75C0 1.05963 0.559625 0.5 1.25 0.5Z" fill="#3178C6"/>
<path d="M9.40738 13.0297V14.7559C9.68813 14.8998 10.0202 15.0077 10.4035 15.0796C10.7868 15.1515 11.1909 15.1875 11.6156 15.1875C12.0295 15.1875 12.4227 15.1479 12.7952 15.0688C13.1677 14.9897 13.4943 14.8593 13.7751 14.6777C14.0558 14.4961 14.2781 14.2587 14.4419 13.9656C14.6056 13.6726 14.6875 13.3103 14.6875 12.8787C14.6875 12.5658 14.6407 12.2915 14.5471 12.056C14.4545 11.8221 14.3169 11.6086 14.1422 11.4276C13.9659 11.2441 13.7544 11.0796 13.5079 10.9339C13.2613 10.7883 12.9833 10.6507 12.6737 10.5213C12.4469 10.4278 12.2436 10.337 12.0636 10.2489C11.8837 10.1608 11.7307 10.0709 11.6047 9.97913C11.4787 9.88746 11.3816 9.79035 11.3132 9.68781C11.2448 9.58527 11.2106 9.46929 11.2106 9.33988C11.2106 9.22121 11.2412 9.11423 11.3024 9.01894C11.3636 8.9236 11.45 8.84179 11.5616 8.7735C11.6731 8.70521 11.8099 8.65215 11.9719 8.61431C12.1338 8.57656 12.3138 8.55769 12.5118 8.55769C12.6558 8.55769 12.8078 8.56848 12.9679 8.59006C13.1281 8.6116 13.2892 8.64487 13.4512 8.68987C13.6126 8.73472 13.7705 8.79152 13.9236 8.85981C14.0719 8.92555 14.2138 9.005 14.3474 9.09713V7.48419C14.0846 7.38348 13.7976 7.30885 13.4862 7.26031C13.1749 7.21177 12.8177 7.1875 12.4146 7.1875C12.0043 7.1875 11.6156 7.23156 11.2484 7.31969C10.8813 7.40777 10.5583 7.54531 10.2793 7.73231C10.0004 7.9194 9.77994 8.15767 9.61794 8.44712C9.45598 8.73662 9.375 9.08277 9.375 9.48556C9.375 9.99981 9.52348 10.4386 9.82044 10.8018C10.1174 11.1651 10.5682 11.4725 11.1728 11.7242C11.396 11.8152 11.6174 11.9105 11.8369 12.0102C12.042 12.1037 12.2193 12.2008 12.3687 12.3014C12.5181 12.4021 12.6359 12.5118 12.7223 12.6305C12.8087 12.7492 12.8519 12.8841 12.8519 13.0351C12.8526 13.1438 12.8247 13.2508 12.7709 13.3453C12.7169 13.4406 12.635 13.5233 12.5253 13.5934C12.4155 13.6636 12.2787 13.7184 12.1149 13.7579C11.9512 13.7975 11.7595 13.8173 11.5399 13.8173C11.1656 13.8173 10.7949 13.7517 10.4278 13.6204C10.0607 13.4891 9.72054 13.2922 9.40738 13.0297ZM6.53013 8.73388H8.75V7.3125H2.5625V8.73388H4.77156V15.0625H6.53013V8.73388Z" fill="white"/>
</svg>
