<svg width="32" height="32" viewBox="0 0 32 32" fill="none" xmlns="http://www.w3.org/2000/svg">
<g clip-path="url(#clip0_3504_169)">
<path d="M16 28C22.6274 28 28 22.6274 28 16C28 9.37258 22.6274 4 16 4C9.37258 4 4 9.37258 4 16C4 22.6274 9.37258 28 16 28Z" stroke="#262626" stroke-linecap="round" stroke-linejoin="round"/>
<path d="M16 20C18.7614 20 21 17.7614 21 15C21 12.2386 18.7614 10 16 10C13.2386 10 11 12.2386 11 15C11 17.7614 13.2386 20 16 20Z" stroke="#262626" stroke-linecap="round" stroke-linejoin="round"/>
<path d="M7.97461 24.9219C8.727 23.4399 9.87506 22.1952 11.2915 21.3258C12.708 20.4563 14.3376 19.9961 15.9996 19.9961C17.6616 19.9961 19.2912 20.4563 20.7077 21.3258C22.1242 22.1952 23.2722 23.4399 24.0246 24.9219" stroke="#262626" stroke-linecap="round" stroke-linejoin="round"/>
</g>
<defs>
<clipPath id="clip0_3504_169">
<rect width="32" height="32" fill="white"/>
</clipPath>
</defs>
</svg>
