<svg width="16" height="17" viewBox="0 0 16 17" fill="none" xmlns="http://www.w3.org/2000/svg">
<path d="M12.25 0.5H3.75C1.67893 0.5 0 2.17893 0 4.25V12.75C0 14.8211 1.67893 16.5 3.75 16.5H12.25C14.3211 16.5 16 14.8211 16 12.75V4.25C16 2.17893 14.3211 0.5 12.25 0.5Z" fill="#F4F2ED"/>
<path d="M2.10681 6.76301C2.10681 6.76301 1.81087 6.5497 2.166 6.26489L2.99325 5.52514C2.99325 5.52514 3.23 5.27608 3.48025 5.49308L11.1146 11.273V14.0446C11.1146 14.0446 11.1109 14.4799 10.5523 14.4318L2.10681 6.76301Z" fill="#2489CA"/>
<path d="M4.07522 8.54956L2.10747 10.3385C2.10747 10.3385 1.90522 10.4889 2.10747 10.7577L3.02103 11.5887C3.02103 11.5887 3.23803 11.8217 3.55859 11.5566L5.64472 9.97481L4.07522 8.54956Z" fill="#1070B3"/>
<path d="M7.52966 8.56437L11.1385 5.80875L11.115 3.05193C11.115 3.05193 10.9609 2.45025 10.4468 2.76343L5.64453 7.13412L7.52966 8.56437Z" fill="#0877B9"/>
<path d="M10.5523 14.4355C10.7619 14.65 11.0159 14.5797 11.0159 14.5797L13.8282 13.1939C14.1882 12.9485 14.1377 12.644 14.1377 12.644V4.36861C14.1377 4.00486 13.7653 3.87917 13.7653 3.87917L11.3279 2.70417C10.7952 2.37498 10.4463 2.76336 10.4463 2.76336C10.4463 2.76336 10.895 2.44036 11.1145 3.05186V13.994C11.1148 14.0687 11.0984 14.1424 11.0665 14.2099C11.0024 14.3393 10.863 14.4601 10.5289 14.4095L10.5523 14.4355Z" fill="#3C99D4"/>
</svg>
